<svg xmlns="http://www.w3.org/2000/svg" xmlns:xlink="http://www.w3.org/1999/xlink" id="svg" width="400" height="131.27629733520337" viewBox="0, 0, 400,131.27629733520337"><g id="svgg"><path id="path0" d="M16.344 2.311 L 12.771 4.599 13.118 7.208 C 13.308 8.644,13.620 10.776,13.809 11.948 C 14.188 14.289,13.976 14.332,9.313 12.857 C 5.946 11.791,5.283 12.121,2.568 16.204 C 0.097 19.921,0.000 20.223,0.007 24.199 L 0.014 28.331 2.111 29.705 C 3.264 30.461,5.451 31.766,6.970 32.604 L 9.733 34.129 4.867 38.941 L 0.000 43.753 0.000 47.093 C -0.000 49.859,0.236 50.688,1.374 51.915 C 2.176 52.782,3.030 54.717,3.428 56.573 C 4.251 60.407,5.258 61.711,7.398 61.711 C 9.610 61.711,12.357 62.962,13.956 64.696 L 15.290 66.143 13.620 67.813 C 12.605 68.828,11.092 69.627,9.762 69.850 C 4.672 70.706,4.393 70.981,3.637 75.889 C 3.455 77.070,2.580 78.837,1.655 79.890 C -0.304 82.121,-0.902 89.201,0.869 89.201 C 1.740 89.201,9.537 96.717,9.537 97.557 C 9.537 98.051,1.284 103.226,0.495 103.226 C 0.223 103.226,-0.000 105.490,-0.000 108.257 C -0.000 112.121,0.167 113.225,0.720 113.013 C 1.148 112.848,2.312 114.105,3.592 116.116 C 6.012 119.914,6.346 120.017,11.921 118.684 C 13.696 118.260,15.144 118.080,15.139 118.283 C 15.134 118.487,14.750 120.268,14.285 122.240 C 12.848 128.337,16.282 131.291,24.772 131.259 C 30.034 131.239,29.981 131.275,33.166 125.451 L 34.698 122.650 39.011 126.963 L 43.324 131.276 47.469 131.276 C 49.792 131.276,51.613 131.036,51.613 130.728 C 51.613 129.761,54.118 128.499,57.200 127.915 C 61.040 127.186,61.577 126.697,62.025 123.517 C 62.657 119.030,65.638 115.448,67.408 117.049 C 68.902 118.401,70.687 122.407,70.687 124.409 C 70.687 126.469,72.363 127.910,74.757 127.910 C 76.730 127.910,79.700 129.126,80.714 130.348 C 81.310 131.067,82.473 131.276,85.876 131.276 L 90.268 131.276 94.548 126.997 L 98.827 122.718 100.802 126.015 C 104.015 131.381,103.840 131.276,109.632 131.276 C 118.374 131.276,121.910 128.211,120.349 121.987 C 119.215 117.463,118.996 117.681,123.605 118.733 C 128.289 119.801,128.494 119.721,130.951 115.881 C 133.416 112.028,133.625 112.028,136.090 115.881 C 138.554 119.733,138.844 119.844,143.421 118.695 C 147.937 117.560,147.906 117.532,146.860 121.814 C 145.312 128.150,148.863 131.276,157.604 131.276 L 162.592 131.276 164.887 127.643 C 166.148 125.645,167.181 123.752,167.181 123.436 C 167.181 122.110,168.669 123.101,172.637 127.069 L 176.845 131.276 180.359 131.276 C 182.949 131.276,184.076 131.031,184.644 130.346 C 185.752 129.006,189.604 127.376,191.693 127.362 C 193.802 127.347,195.231 125.683,195.231 123.242 C 195.231 119.624,198.245 115.601,200.179 116.636 C 201.519 117.353,203.647 121.549,203.647 123.474 C 203.647 125.390,205.151 127.349,206.624 127.352 C 208.857 127.358,212.001 128.493,213.668 129.895 C 215.073 131.077,215.880 131.276,219.268 131.276 L 223.228 131.276 227.435 127.069 C 232.248 122.255,232.306 122.233,233.496 124.684 C 233.983 125.687,235.168 127.581,236.128 128.892 L 237.875 131.276 242.736 131.276 C 247.398 131.276,247.729 131.190,250.862 129.173 C 254.525 126.812,254.627 126.478,253.327 121.038 C 252.443 117.341,252.341 117.406,257.089 118.642 C 261.156 119.701,261.686 119.462,264.249 115.409 L 266.368 112.058 268.107 114.458 C 269.063 115.778,269.846 117.067,269.846 117.322 C 269.846 118.982,272.465 119.496,276.211 118.572 C 280.791 117.442,280.662 117.316,279.561 121.851 C 278.034 128.138,281.779 131.287,290.754 131.262 L 295.933 131.247 297.715 128.597 C 298.696 127.139,299.809 125.252,300.190 124.404 C 301.179 122.198,301.598 122.385,306.192 127.069 L 310.319 131.276 313.984 131.276 C 317.061 131.276,317.914 131.054,319.291 129.895 C 320.935 128.513,324.096 127.358,326.255 127.352 C 327.724 127.348,328.751 126.321,328.755 124.853 C 328.763 121.705,331.657 116.129,333.282 116.129 C 334.218 116.129,336.548 120.319,337.168 123.119 C 337.957 126.676,338.551 127.349,340.900 127.349 C 343.292 127.349,346.095 128.509,347.492 130.077 C 348.394 131.089,349.182 131.276,352.541 131.276 L 356.522 131.276 360.978 126.975 C 364.953 123.139,365.499 122.784,366.027 123.687 C 366.353 124.245,367.588 126.180,368.770 127.988 L 370.920 131.276 375.990 131.276 C 385.017 131.276,388.985 127.943,387.371 121.716 C 386.288 117.535,386.353 117.448,389.947 118.277 C 396.743 119.846,400.000 116.457,400.000 107.817 L 400.000 103.320 397.877 101.638 C 396.709 100.714,394.816 99.510,393.669 98.963 C 390.777 97.584,390.995 96.892,395.792 92.233 L 400.000 88.146 400.000 85.118 C 400.000 82.357,399.804 81.884,397.775 79.751 C 395.999 77.884,395.473 76.838,395.173 74.573 C 394.701 71.018,394.053 70.375,390.466 69.899 C 388.261 69.607,387.106 69.064,385.520 67.576 L 383.450 65.634 385.252 63.981 C 386.887 62.480,388.133 61.976,392.839 60.917 C 393.931 60.671,394.463 60.131,394.687 59.038 C 395.576 54.704,396.356 52.901,398.093 51.164 C 399.977 49.280,401.095 42.076,399.503 42.076 C 398.785 42.076,392.447 35.852,391.664 34.379 C 391.056 33.234,391.196 33.035,393.397 31.920 C 400.092 28.528,402.470 22.485,398.780 18.241 C 398.109 17.469,397.025 15.889,396.372 14.730 C 395.066 12.414,393.708 12.152,388.274 13.172 L 385.804 13.635 386.267 11.165 C 387.676 3.658,384.191 0.000,375.633 0.000 L 371.575 0.000 369.559 2.945 C 368.451 4.565,367.232 6.585,366.852 7.433 C 365.871 9.619,365.595 9.489,360.593 4.488 L 356.105 0.000 351.754 0.000 C 348.389 0.000,347.228 0.211,346.633 0.928 C 345.612 2.160,342.644 3.366,340.638 3.366 C 338.541 3.366,337.407 4.733,336.936 7.828 C 336.505 10.663,334.809 13.733,333.370 14.286 C 331.497 15.004,328.206 9.776,328.194 6.063 C 328.190 4.742,326.034 3.366,323.968 3.366 C 323.011 3.366,321.055 2.615,319.585 1.683 C 314.914 -1.280,311.177 -0.839,307.798 3.074 C 304.118 7.337,301.318 9.431,300.712 8.376 C 300.458 7.935,299.171 5.870,297.851 3.787 L 295.450 0.000 290.716 0.000 C 282.053 -0.000,278.131 3.382,279.698 9.500 C 280.809 13.836,280.713 13.927,276.271 12.762 C 271.773 11.582,271.522 11.684,268.930 15.753 C 266.349 19.804,266.612 19.806,264.001 15.708 C 261.633 11.991,261.485 11.939,256.291 13.012 C 252.278 13.841,252.273 13.836,253.328 9.783 C 254.899 3.753,250.674 -0.000,242.313 0.000 L 237.838 0.000 235.188 4.178 C 231.936 9.305,232.326 9.304,227.328 4.208 L 223.202 -0.000 218.730 -0.000 C 215.029 -0.000,214.051 0.194,213.050 1.126 C 211.793 2.297,208.747 3.358,206.624 3.363 C 205.074 3.367,203.647 5.355,203.647 7.509 C 203.647 9.482,201.274 13.739,199.876 14.276 C 198.272 14.891,196.002 11.851,195.220 8.041 C 194.397 4.029,193.895 3.369,191.656 3.354 C 189.758 3.340,185.510 1.624,184.889 0.619 C 184.671 0.267,182.888 0.001,180.752 0.002 L 176.999 0.004 174.856 2.667 C 171.483 6.860,168.168 9.307,167.464 8.125 C 167.154 7.606,165.875 5.628,164.623 3.731 L 162.345 0.281 157.565 0.120 C 149.142 -0.163,145.149 3.296,146.738 9.500 C 147.849 13.835,147.805 13.876,143.202 12.774 C 138.774 11.715,138.110 11.954,136.138 15.319 C 133.696 19.486,133.369 19.527,131.004 15.965 C 128.459 12.131,128.246 12.042,123.709 12.944 C 119.223 13.836,119.143 13.755,120.226 9.452 C 121.642 3.831,117.189 -0.000,109.239 0.000 C 104.543 0.000,104.334 0.157,100.778 6.326 L 99.234 9.006 97.618 7.856 C 96.730 7.223,94.638 5.197,92.969 3.353 L 89.935 0.000 85.618 0.000 C 82.120 0.000,81.000 0.222,79.716 1.172 C 78.845 1.816,76.651 2.636,74.841 2.995 C 71.290 3.698,71.572 3.347,70.134 8.861 C 69.788 10.185,68.789 12.072,67.913 13.052 L 66.320 14.834 64.612 13.006 C 63.461 11.774,62.679 10.132,62.215 7.973 C 61.318 3.805,61.146 3.624,57.354 2.863 C 55.585 2.508,53.506 1.724,52.735 1.121 C 51.670 0.289,50.438 0.022,47.614 0.012 L 43.895 0.000 39.324 4.571 L 34.753 9.142 32.920 6.114 C 28.918 -0.496,29.602 -0.001,24.480 0.012 C 20.107 0.023,19.766 0.120,16.344 2.311 M187.016 8.392 C 189.192 9.002,189.472 9.288,190.067 11.513 C 190.427 12.860,191.484 14.830,192.415 15.890 L 194.108 17.818 190.535 21.463 C 188.570 23.467,186.493 25.900,185.920 26.870 C 185.210 28.072,184.606 28.517,184.024 28.267 C 183.554 28.065,180.360 27.777,176.925 27.627 L 170.680 27.353 170.397 20.549 L 170.113 13.745 171.873 12.370 C 172.841 11.613,175.147 9.459,176.999 7.583 L 180.365 4.171 182.492 5.946 C 183.662 6.923,185.698 8.023,187.016 8.392 M361.988 13.186 C 363.422 14.230,363.490 14.458,362.983 16.550 C 362.684 17.784,362.433 20.877,362.426 23.424 L 362.412 28.054 359.187 27.912 C 357.412 27.834,354.194 27.966,352.034 28.205 L 348.107 28.641 346.564 26.183 C 345.715 24.831,343.631 22.411,341.933 20.805 L 338.845 17.884 340.304 15.970 C 341.107 14.918,342.075 13.004,342.455 11.718 C 343.069 9.636,343.450 9.266,345.916 8.346 C 347.440 7.777,349.523 6.613,350.544 5.760 L 352.400 4.208 356.425 8.137 C 358.638 10.298,361.141 12.570,361.988 13.186 M25.053 6.031 C 29.175 11.607,28.923 12.116,21.254 13.705 C 19.511 14.066,18.186 8.115,19.808 7.207 C 20.232 6.971,21.186 6.270,21.930 5.651 C 23.670 4.202,23.704 4.207,25.053 6.031 M49.495 5.911 C 50.425 6.693,52.296 7.630,53.654 7.993 C 55.808 8.570,56.191 8.910,56.665 10.671 C 56.964 11.781,57.998 13.881,58.963 15.337 L 60.717 17.985 57.773 20.914 C 56.154 22.525,54.185 24.811,53.396 25.994 C 52.018 28.061,51.868 28.132,49.585 27.790 C 48.278 27.594,45.044 27.433,42.398 27.433 L 37.588 27.433 37.574 22.833 C 37.567 20.303,37.316 17.223,37.017 15.989 C 36.511 13.899,36.578 13.668,38.008 12.623 C 38.852 12.006,41.186 9.927,43.193 8.004 C 47.389 3.987,47.259 4.030,49.495 5.911 M112.566 6.576 C 114.357 7.919,114.736 11.544,113.253 13.156 C 112.809 13.639,106.507 12.703,105.338 11.980 C 104.828 11.665,106.231 8.828,108.140 6.317 C 109.588 4.412,109.691 4.418,112.566 6.576 M159.400 6.873 C 162.735 12.261,162.665 12.417,156.458 13.417 L 153.870 13.834 153.334 10.879 L 152.798 7.924 155.081 6.251 C 157.976 4.130,157.675 4.087,159.400 6.873 M245.734 6.701 C 247.572 8.034,248.025 12.228,246.518 13.952 C 246.100 14.430,238.429 12.165,238.429 11.563 C 238.429 10.225,242.446 4.477,243.104 4.873 C 243.464 5.090,244.648 5.913,245.734 6.701 M294.292 9.650 C 295.463 11.870,295.330 12.135,292.707 12.809 C 286.642 14.366,286.874 14.426,286.443 11.183 C 286.232 9.588,286.164 8.179,286.293 8.050 C 286.421 7.922,287.498 7.092,288.686 6.207 L 290.844 4.597 292.169 6.366 C 292.897 7.339,293.852 8.816,294.292 9.650 M315.374 5.877 C 316.282 6.641,318.282 7.713,319.818 8.258 C 322.266 9.128,322.681 9.508,323.172 11.334 C 323.481 12.480,324.560 14.501,325.571 15.825 L 327.409 18.233 324.472 20.919 C 322.856 22.397,320.823 24.742,319.954 26.130 C 318.708 28.118,318.135 28.583,317.251 28.321 C 316.634 28.139,313.449 27.843,310.174 27.664 L 304.219 27.338 303.919 21.383 C 303.754 18.108,303.466 15.049,303.278 14.586 C 303.042 14.004,304.064 12.911,306.596 11.040 C 308.608 9.552,310.945 7.469,311.789 6.411 C 313.618 4.119,313.335 4.161,315.374 5.877 M380.532 10.870 C 380.116 14.551,380.462 14.386,375.594 13.238 C 370.842 12.118,370.901 12.403,374.360 7.199 L 376.101 4.579 378.479 6.287 C 380.850 7.990,380.855 8.002,380.532 10.870 M89.481 8.503 C 91.332 10.399,93.819 12.593,95.006 13.379 C 96.997 14.697,97.140 14.964,96.836 16.801 C 96.654 17.897,96.503 20.715,96.500 23.063 L 96.494 27.333 90.182 27.632 C 86.711 27.796,83.470 28.095,82.980 28.296 C 82.349 28.555,81.648 27.994,80.573 26.369 C 79.738 25.108,77.613 22.634,75.849 20.871 L 72.644 17.665 74.470 14.607 C 75.475 12.926,76.297 10.976,76.297 10.274 C 76.297 9.336,76.706 8.910,77.840 8.667 C 80.663 8.063,84.055 6.683,84.737 5.861 C 85.714 4.684,85.794 4.728,89.481 8.503 M228.234 13.464 C 230.466 14.847,230.493 14.903,230.116 17.391 C 229.906 18.780,229.734 21.952,229.734 24.441 L 229.734 28.967 225.526 28.929 C 223.212 28.909,219.930 29.089,218.233 29.329 L 215.147 29.767 213.604 27.307 C 212.756 25.954,210.672 23.533,208.974 21.927 L 205.886 19.006 207.298 17.154 C 208.075 16.135,209.090 14.189,209.554 12.828 C 210.311 10.607,210.684 10.253,213.221 9.352 C 214.774 8.800,216.834 7.644,217.798 6.783 L 219.550 5.217 222.760 8.639 C 224.525 10.522,226.988 12.693,228.234 13.464 M31.219 25.751 C 30.867 30.798,30.812 30.838,24.404 30.838 C 17.833 30.838,17.649 30.710,18.708 26.871 C 19.168 25.205,19.695 22.930,19.881 21.815 C 20.210 19.842,20.298 19.778,23.186 19.438 C 24.818 19.247,27.148 18.743,28.364 18.320 L 30.575 17.550 31.042 19.574 C 31.298 20.688,31.378 23.467,31.219 25.751 M107.415 18.873 C 108.948 19.292,110.728 19.635,111.371 19.635 C 112.918 19.635,113.885 20.672,113.885 22.331 C 113.885 23.074,114.278 25.197,114.758 27.050 C 115.826 31.171,116.103 30.920,110.436 30.964 C 103.753 31.015,102.917 30.567,102.462 26.693 C 101.910 21.995,102.582 17.228,103.727 17.722 C 104.223 17.935,105.883 18.453,107.415 18.873 M127.198 20.431 L 128.945 22.910 126.885 24.272 C 125.752 25.022,124.033 26.044,123.065 26.544 L 121.305 27.453 120.400 23.849 C 119.128 18.783,119.164 18.616,121.599 18.361 C 122.756 18.240,124.096 18.098,124.576 18.047 C 125.057 17.995,126.236 19.068,127.198 20.431 M146.269 18.507 C 147.632 18.514,147.638 19.298,146.317 24.544 C 145.605 27.374,145.327 27.415,141.555 25.252 C 137.772 23.082,137.701 22.905,139.536 20.209 C 140.963 18.113,141.259 17.945,143.058 18.211 C 144.137 18.370,145.583 18.504,146.269 18.507 M164.655 21.459 C 165.572 30.182,164.123 31.747,155.562 31.277 C 151.190 31.037,151.235 31.094,152.283 27.050 C 152.763 25.197,153.156 23.018,153.156 22.207 C 153.156 21.198,153.554 20.578,154.418 20.242 C 155.668 19.755,162.364 18.136,163.630 18.015 C 164.034 17.977,164.429 19.304,164.655 21.459 M240.393 19.016 C 241.627 19.332,243.583 19.738,244.741 19.919 C 246.577 20.205,246.844 20.442,246.844 21.777 C 246.844 22.618,247.309 24.981,247.876 27.027 L 248.908 30.749 245.913 31.123 C 237.302 32.199,235.624 30.987,235.624 23.693 C 235.624 18.455,235.825 17.781,237.267 18.191 C 237.752 18.329,239.158 18.700,240.393 19.016 M260.446 20.341 L 261.986 22.721 260.446 24.014 C 257.884 26.165,254.713 27.641,254.449 26.805 C 251.792 18.389,251.735 18.537,257.784 18.051 C 258.540 17.990,259.408 18.736,260.446 20.341 M297.654 20.534 C 298.077 23.360,297.691 30.126,297.070 30.747 C 296.565 31.252,285.207 31.256,284.702 30.752 C 284.491 30.540,284.705 29.152,285.178 27.666 C 285.651 26.180,286.204 23.892,286.406 22.581 C 286.706 20.642,287.001 20.189,287.988 20.158 C 288.655 20.137,290.842 19.667,292.847 19.114 C 294.853 18.561,296.668 18.073,296.880 18.030 C 297.093 17.987,297.441 19.114,297.654 20.534 M373.857 19.121 C 374.751 19.404,376.140 19.639,376.942 19.644 C 379.272 19.658,379.813 20.345,380.728 24.456 C 381.203 26.587,381.719 28.872,381.874 29.533 C 382.228 31.046,378.303 31.747,372.790 31.157 L 369.246 30.777 368.866 27.511 C 368.658 25.715,368.664 22.832,368.880 21.104 C 369.311 17.652,369.268 17.669,373.857 19.121 M394.777 23.475 C 394.148 24.250,388.796 27.475,388.124 27.484 C 387.735 27.490,385.792 19.631,386.105 19.319 C 386.201 19.222,387.537 18.930,389.073 18.669 L 391.865 18.195 393.627 20.458 C 394.964 22.176,395.241 22.903,394.777 23.475 M11.921 19.434 C 14.308 19.829,14.508 20.586,13.395 25.007 C 12.569 28.290,12.281 28.392,8.965 26.588 C 4.881 24.365,4.723 24.031,6.491 21.359 C 8.061 18.987,8.427 18.857,11.921 19.434 M279.175 19.945 C 280.810 20.288,280.843 23.082,279.258 26.908 L 278.541 28.637 275.035 26.558 C 270.944 24.131,271.049 24.435,273.259 21.430 C 274.657 19.529,275.250 19.131,276.345 19.356 C 277.090 19.510,278.364 19.775,279.175 19.945 M202.516 24.334 C 204.817 26.155,208.696 30.593,208.696 31.405 C 208.696 31.621,208.001 32.109,207.153 32.490 C 206.304 32.871,204.299 34.079,202.696 35.176 L 199.782 37.170 197.627 35.464 C 196.442 34.525,194.535 33.310,193.389 32.764 C 190.414 31.345,191.455 29.054,197.105 24.587 C 200.350 22.021,199.635 22.055,202.516 24.334 M338.293 26.294 C 342.951 30.870,342.953 30.881,339.551 32.859 C 338.086 33.711,336.129 34.976,335.203 35.670 L 333.520 36.931 329.313 34.156 C 323.977 30.638,324.002 30.956,328.695 26.347 C 333.569 21.559,333.472 21.559,338.293 26.294 M71.095 26.227 C 76.095 31.056,76.296 31.670,73.363 33.164 C 72.045 33.835,70.119 35.030,69.082 35.820 C 66.964 37.432,67.779 37.664,61.018 33.525 L 57.799 31.555 59.685 29.172 C 64.927 22.548,66.788 22.068,71.095 26.227 M139.861 31.507 L 142.554 32.868 140.678 35.239 C 139.647 36.543,137.588 38.614,136.104 39.840 L 133.405 42.070 131.853 40.965 C 131.000 40.357,128.861 38.304,127.100 36.403 L 123.899 32.945 126.711 31.408 C 128.257 30.562,130.345 29.226,131.351 28.439 L 133.179 27.008 135.173 28.577 C 136.270 29.440,138.379 30.759,139.861 31.507 M269.434 29.388 C 270.903 30.432,272.858 31.599,273.780 31.981 C 276.116 32.948,275.986 33.257,271.277 37.966 C 266.379 42.864,266.630 42.881,261.010 37.267 C 257.021 33.283,256.893 32.928,259.111 32.009 C 259.996 31.642,261.952 30.490,263.459 29.447 C 266.822 27.120,266.252 27.126,269.434 29.388 M97.004 34.179 C 97.974 34.793,98.453 39.780,97.937 43.907 L 97.562 46.907 93.802 45.926 C 91.734 45.387,89.372 44.931,88.552 44.913 C 87.186 44.883,87.028 44.635,86.658 41.947 C 86.436 40.333,85.908 38.029,85.484 36.827 C 85.059 35.625,84.712 34.566,84.712 34.473 C 84.712 33.682,95.800 33.417,97.004 34.179 M179.608 34.001 L 182.094 34.342 181.121 38.069 C 180.586 40.118,180.134 42.489,180.116 43.338 C 180.089 44.631,179.834 44.886,178.541 44.913 C 177.693 44.931,175.311 45.386,173.248 45.924 C 168.812 47.081,168.879 47.163,168.879 40.673 C 168.879 35.391,169.222 34.334,171.025 34.057 C 173.557 33.668,177.013 33.646,179.608 34.001 M230.978 34.438 C 231.519 34.978,231.494 45.531,230.950 46.411 C 230.652 46.893,229.878 46.864,227.898 46.297 C 226.439 45.878,224.172 45.366,222.859 45.159 C 220.861 44.843,220.423 44.539,220.163 43.288 C 219.992 42.467,219.488 40.229,219.043 38.314 C 218.037 33.992,218.000 34.350,219.495 34.025 C 221.389 33.614,230.481 33.941,230.978 34.438 M314.844 34.697 C 315.063 34.904,314.877 36.586,314.431 38.435 C 313.985 40.283,313.489 42.474,313.329 43.304 C 313.078 44.613,312.688 44.865,310.377 45.207 C 308.912 45.424,306.735 45.944,305.540 46.363 C 302.494 47.430,302.578 47.501,302.251 43.619 C 301.677 36.800,302.305 34.561,304.909 34.136 C 307.414 33.728,314.227 34.112,314.844 34.697 M364.095 34.618 C 364.510 34.999,364.437 46.409,364.017 46.829 C 363.820 47.026,362.179 46.811,360.371 46.351 C 358.562 45.891,356.326 45.435,355.401 45.338 C 353.818 45.172,353.685 44.963,353.120 41.793 C 352.790 39.940,352.235 37.607,351.886 36.607 C 351.306 34.941,351.356 34.766,352.485 34.516 C 355.372 33.878,363.366 33.948,364.095 34.618 M48.536 35.446 C 48.712 35.622,48.480 37.374,48.022 39.341 C 47.563 41.308,47.051 43.579,46.884 44.387 C 46.617 45.674,46.222 45.904,43.688 46.240 C 42.098 46.451,39.837 46.954,38.662 47.359 C 35.990 48.280,35.849 48.000,35.849 41.795 C 35.849 36.718,36.141 35.533,37.495 35.129 C 38.720 34.763,48.124 35.033,48.536 35.446 M120.362 37.869 C 121.488 39.566,123.562 41.969,124.969 43.208 L 127.528 45.460 126.281 46.787 C 125.595 47.518,124.438 49.581,123.709 51.374 C 122.511 54.322,122.165 54.697,120.083 55.312 C 118.816 55.686,116.887 56.673,115.796 57.506 L 113.812 59.019 110.053 55.456 C 107.986 53.497,105.603 51.388,104.756 50.771 C 103.218 49.650,103.217 49.646,103.831 45.834 C 104.168 43.735,104.360 40.579,104.256 38.821 L 104.067 35.624 107.714 35.793 C 109.719 35.885,112.749 35.725,114.446 35.437 C 116.143 35.149,117.707 34.884,117.922 34.848 C 118.137 34.812,119.235 36.171,120.362 37.869 M253.737 37.728 C 254.854 39.348,256.905 41.788,258.295 43.151 L 260.822 45.629 259.152 47.530 C 258.234 48.576,257.180 50.563,256.810 51.945 C 256.286 53.904,255.825 54.533,254.717 54.798 C 252.534 55.321,249.485 56.975,248.309 58.276 L 247.249 59.448 245.148 57.060 C 243.992 55.747,241.537 53.573,239.691 52.230 C 236.376 49.815,236.341 49.762,236.808 47.754 C 237.068 46.637,237.286 43.513,237.294 40.813 L 237.307 35.905 241.374 35.863 C 243.612 35.840,246.578 35.619,247.966 35.372 C 249.355 35.125,250.764 34.891,251.099 34.853 C 251.433 34.814,252.621 36.108,253.737 37.728 M158.003 35.905 L 162.693 35.905 162.717 40.533 C 162.731 43.079,162.951 46.244,163.207 47.568 C 163.666 49.940,163.640 49.997,161.359 51.587 C 160.087 52.473,157.666 54.609,155.980 56.333 C 152.459 59.931,152.465 59.930,150.264 58.078 C 149.356 57.314,147.388 56.254,145.891 55.722 C 143.501 54.873,143.087 54.484,142.504 52.539 C 142.139 51.320,141.193 49.344,140.401 48.148 L 138.962 45.974 141.161 44.092 C 142.371 43.057,144.491 40.644,145.874 38.730 L 148.387 35.250 150.850 35.577 C 152.204 35.757,155.423 35.905,158.003 35.905 M290.389 36.161 L 296.065 36.185 296.066 40.393 C 296.067 42.707,296.244 45.881,296.460 47.445 L 296.852 50.290 294.429 51.887 C 293.096 52.765,290.573 54.943,288.821 56.727 L 285.637 59.972 283.545 58.309 C 282.394 57.395,280.248 56.218,278.775 55.695 C 276.497 54.886,276.048 54.479,275.763 52.963 C 275.580 51.983,274.687 50.079,273.780 48.732 L 272.130 46.283 275.672 42.637 C 277.620 40.631,279.774 38.169,280.459 37.166 C 281.519 35.614,281.929 35.401,283.209 35.739 C 284.036 35.957,287.267 36.147,290.389 36.161 M386.460 37.728 C 387.373 39.039,389.385 41.346,390.931 42.853 L 393.742 45.595 391.841 48.359 C 390.795 49.879,389.781 51.967,389.587 52.999 C 389.291 54.579,388.940 54.929,387.358 55.226 C 386.326 55.420,384.287 56.401,382.827 57.407 L 380.174 59.235 378.056 56.938 C 376.892 55.674,374.558 53.644,372.871 52.425 L 369.804 50.210 370.176 47.686 C 370.380 46.297,370.547 43.130,370.547 40.647 L 370.547 36.133 373.633 36.336 C 375.330 36.447,378.107 36.299,379.804 36.007 C 384.621 35.176,384.696 35.196,386.460 37.728 M29.519 37.237 C 29.556 37.275,29.715 40.463,29.874 44.320 L 30.163 51.332 27.926 52.735 C 26.696 53.506,24.245 55.677,22.479 57.560 L 19.270 60.982 17.517 59.416 C 16.553 58.555,14.479 57.393,12.907 56.835 C 10.731 56.063,9.969 55.486,9.714 54.418 C 9.240 52.429,7.907 49.851,6.631 48.453 L 5.538 47.256 8.726 44.245 C 10.480 42.589,12.628 40.199,13.499 38.935 L 15.084 36.635 22.269 36.901 C 26.220 37.047,29.483 37.198,29.519 37.237 M193.714 40.502 L 195.282 41.795 193.501 44.212 C 192.366 45.753,191.426 46.515,190.906 46.316 C 190.457 46.144,189.228 46.003,188.173 46.003 C 185.889 46.003,185.597 44.206,187.145 39.664 L 188.035 37.053 190.090 38.131 C 191.221 38.724,192.851 39.791,193.714 40.502 M213.445 43.084 C 213.885 45.686,213.873 45.696,210.059 46.227 C 207.867 46.532,207.707 46.447,206.036 44.076 L 204.295 41.606 206.355 40.217 C 211.951 36.442,212.350 36.603,213.445 43.084 M327.873 40.656 C 329.085 41.609,326.367 46.393,324.728 46.192 C 319.205 45.511,319.052 45.277,320.638 39.935 L 321.501 37.029 324.145 38.417 C 325.599 39.180,327.276 40.188,327.873 40.656 M346.350 40.289 C 347.670 44.994,347.595 45.335,345.161 45.746 C 344.004 45.941,342.679 46.192,342.216 46.305 C 341.424 46.496,338.289 42.702,338.289 41.550 C 338.289 41.057,344.331 37.027,345.070 37.027 C 345.270 37.027,345.846 38.495,346.350 40.289 M58.650 39.590 C 60.479 40.691,62.059 41.676,62.162 41.779 C 62.265 41.881,61.509 43.065,60.483 44.410 L 58.618 46.854 55.817 46.355 C 52.254 45.722,52.445 46.131,53.570 41.541 C 54.702 36.923,54.409 37.036,58.650 39.590 M79.390 39.863 C 79.753 40.926,80.193 42.704,80.368 43.814 L 80.687 45.833 77.687 46.377 L 74.686 46.921 72.935 44.437 C 71.972 43.070,71.262 41.885,71.357 41.803 C 72.529 40.783,77.827 37.683,78.215 37.790 C 78.499 37.868,79.028 38.801,79.390 39.863 M202.702 50.155 C 204.827 53.409,204.859 53.431,207.050 53.084 C 208.264 52.892,210.306 52.570,211.588 52.369 L 213.919 52.003 213.515 54.192 C 213.293 55.396,212.970 57.434,212.799 58.721 L 212.487 61.061 215.921 63.208 C 220.112 65.828,220.110 65.659,215.989 68.163 C 212.259 70.428,212.208 70.575,213.293 75.827 C 214.128 79.869,214.066 79.923,209.841 78.828 C 205.376 77.671,204.905 77.869,202.363 81.982 C 201.195 83.872,200.071 85.251,199.866 85.046 C 199.661 84.841,198.578 83.357,197.459 81.747 C 195.239 78.555,193.953 78.224,188.283 79.388 L 186.103 79.835 186.449 77.926 C 186.640 76.876,186.951 74.755,187.140 73.212 L 187.485 70.407 184.367 68.565 C 180.155 66.076,180.138 65.949,183.736 63.647 C 187.843 61.020,188.018 60.139,185.920 52.667 C 185.698 51.877,185.979 51.824,188.064 52.265 C 189.383 52.543,191.513 52.920,192.796 53.101 L 195.129 53.430 197.503 49.671 C 198.809 47.603,200.031 46.129,200.219 46.394 C 200.407 46.659,201.524 48.351,202.702 50.155 M335.817 49.380 C 338.250 53.323,339.091 53.657,343.604 52.482 C 345.438 52.004,347.114 51.613,347.327 51.613 C 347.541 51.613,347.338 53.268,346.876 55.291 C 345.756 60.200,346.075 61.082,349.767 63.285 C 353.810 65.698,353.927 65.374,347.619 69.250 C 345.883 70.317,345.846 71.002,347.174 77.294 C 347.615 79.379,347.562 79.659,346.772 79.438 C 339.709 77.454,338.234 77.626,336.650 80.618 C 336.030 81.790,335.063 83.327,334.502 84.033 L 333.483 85.317 331.293 81.934 C 328.671 77.882,328.236 77.704,323.740 78.856 C 319.428 79.961,319.322 79.858,320.423 75.632 C 321.600 71.116,321.350 70.482,317.461 68.120 C 313.701 65.836,313.706 65.764,317.849 63.114 C 321.232 60.950,321.311 60.696,320.228 55.449 C 319.399 51.436,319.404 51.431,323.456 52.487 C 327.885 53.640,328.666 53.326,331.171 49.375 C 333.755 45.300,333.298 45.300,335.817 49.380 M70.034 51.136 C 71.663 53.834,72.338 54.018,76.636 52.939 C 81.062 51.827,80.928 51.696,79.895 56.125 C 78.895 60.410,79.307 61.773,82.023 63.166 C 83.040 63.687,84.425 64.546,85.103 65.073 L 86.335 66.033 84.823 67.151 C 83.991 67.766,82.493 68.692,81.495 69.208 C 79.161 70.415,78.801 72.001,79.956 75.975 C 81.112 79.951,81.029 80.029,76.615 79.152 C 72.025 78.240,71.328 78.513,69.285 82.027 C 67.063 85.848,66.832 85.843,64.373 81.908 C 62.033 78.165,61.812 78.091,56.871 79.378 C 52.894 80.414,52.960 80.491,53.847 75.792 C 54.761 70.948,54.649 70.681,50.820 68.519 C 46.724 66.208,46.638 66.453,52.875 62.631 C 54.662 61.535,54.736 60.800,53.532 56.098 C 52.435 51.818,52.432 51.820,56.987 52.965 C 60.714 53.901,63.394 53.365,63.394 51.684 C 63.394 51.429,64.165 50.156,65.108 48.855 L 66.821 46.490 67.809 47.789 C 68.353 48.504,69.354 50.010,70.034 51.136 M136.590 55.915 C 137.376 60.996,137.256 60.889,143.468 62.054 C 144.157 62.183,145.637 63.093,146.757 64.077 L 148.794 65.865 146.813 67.681 C 145.605 68.788,143.992 69.627,142.682 69.830 C 137.617 70.613,137.867 70.333,136.574 76.675 C 136.252 78.256,133.647 81.346,132.637 81.346 C 131.364 81.346,128.920 77.085,128.609 74.323 C 128.290 71.495,126.962 70.126,124.538 70.126 C 122.705 70.126,118.348 67.915,117.567 66.588 C 116.749 65.198,119.792 62.462,122.696 61.976 C 127.716 61.135,128.007 60.846,128.762 55.949 C 128.950 54.724,129.833 52.984,130.857 51.818 L 132.626 49.803 134.442 51.785 C 135.548 52.993,136.387 54.606,136.590 55.915 M269.913 54.137 C 270.479 55.372,270.949 57.171,270.955 58.136 C 270.971 60.380,271.780 61.015,275.511 61.715 C 283.585 63.228,283.147 68.772,274.851 70.083 C 271.579 70.600,270.407 71.681,270.407 74.179 C 270.407 77.842,267.296 82.129,265.465 80.989 C 264.056 80.111,262.011 76.244,262.001 74.437 C 261.986 71.939,261.050 70.768,258.759 70.384 C 248.992 68.745,248.477 63.394,257.917 61.631 C 260.947 61.065,261.990 60.314,261.995 58.697 C 262.001 56.307,263.180 53.343,264.825 51.583 C 266.820 49.447,268.040 50.059,269.913 54.137 M180.613 57.008 C 180.667 58.990,176.221 61.633,175.177 60.240 C 171.019 54.685,171.051 53.737,175.430 52.768 C 177.218 52.372,178.934 51.990,179.243 51.919 C 179.788 51.794,180.548 54.614,180.613 57.008 M224.826 52.761 C 228.871 53.650,228.918 55.101,225.058 59.973 L 223.991 61.320 221.813 59.715 C 220.615 58.832,219.566 58.072,219.481 58.026 C 218.757 57.634,220.184 51.780,220.967 51.933 C 221.469 52.032,223.206 52.404,224.826 52.761 M313.809 54.558 C 314.143 57.295,314.059 57.595,312.624 58.794 C 309.464 61.433,309.371 61.418,307.195 57.939 C 304.582 53.763,304.620 53.601,308.415 52.761 C 310.189 52.369,311.893 51.970,312.202 51.875 C 312.511 51.779,312.917 51.682,313.106 51.657 C 313.294 51.633,313.610 52.938,313.809 54.558 M358.920 52.844 C 360.240 53.177,361.450 53.662,361.611 53.921 C 361.828 54.274,358.776 59.744,357.638 61.042 C 357.554 61.136,356.369 60.426,355.002 59.463 L 352.518 57.712 353.069 54.675 C 353.681 51.296,353.287 51.420,358.920 52.844 M46.758 53.156 C 47.994 57.664,47.258 59.222,43.022 61.068 C 42.427 61.328,41.254 59.809,39.561 56.587 L 38.196 53.987 41.118 53.126 C 45.057 51.964,46.433 51.971,46.758 53.156 M93.268 53.421 C 95.862 54.178,95.862 54.251,93.243 58.370 L 91.114 61.718 88.696 59.940 C 86.446 58.285,86.302 58.022,86.611 56.150 C 86.794 55.043,86.947 53.668,86.950 53.093 C 86.957 51.966,88.566 52.049,93.268 53.421 M170.137 62.894 L 171.612 64.828 170.170 66.671 C 169.376 67.685,168.035 69.779,167.190 71.326 L 165.652 74.137 162.195 70.936 C 160.293 69.176,158.223 67.012,157.593 66.128 L 156.449 64.521 161.026 59.944 L 165.603 55.367 167.133 58.164 C 167.974 59.702,169.326 61.831,170.137 62.894 M106.732 60.694 C 110.817 64.860,110.805 64.962,105.693 69.992 L 101.428 74.188 100.142 71.923 C 99.434 70.677,98.097 68.555,97.169 67.207 L 95.482 64.755 97.157 62.532 C 98.078 61.309,99.323 59.357,99.923 58.194 C 101.271 55.584,101.975 55.843,106.732 60.694 M240.177 61.122 C 243.843 65.212,243.222 67.239,236.792 72.173 L 234.313 74.074 232.793 71.293 C 231.956 69.764,230.736 67.832,230.082 67.000 C 228.538 65.037,228.488 65.267,231.417 60.900 C 232.805 58.829,233.941 56.888,233.941 56.586 C 233.941 55.531,237.461 58.091,240.177 61.122 M299.855 57.209 C 300.049 57.819,301.227 59.844,302.474 61.711 L 304.740 65.105 303.363 66.915 C 302.605 67.910,301.447 69.780,300.790 71.070 C 299.031 74.524,298.840 74.490,294.253 69.904 C 289.128 64.778,289.132 65.300,294.186 60.245 C 298.597 55.834,299.300 55.458,299.855 57.209 M374.090 61.944 C 376.940 65.037,376.936 64.915,374.334 68.056 C 370.885 72.219,367.876 74.372,367.184 73.171 C 366.874 72.634,365.549 70.563,364.241 68.569 L 361.862 64.945 363.465 62.907 C 364.347 61.786,365.618 59.784,366.290 58.458 L 367.512 56.047 369.627 57.722 C 370.790 58.643,372.799 60.543,374.090 61.944 M33.100 57.680 C 33.100 57.931,34.236 59.830,35.624 61.900 C 38.616 66.362,38.542 65.821,36.514 68.382 C 35.615 69.517,34.432 71.384,33.886 72.530 C 33.339 73.676,32.735 74.614,32.544 74.614 C 31.798 74.614,28.429 71.795,26.732 69.751 C 23.252 65.560,23.320 66.054,25.801 63.045 C 28.929 59.251,33.100 56.185,33.100 57.680 M47.302 75.456 C 46.583 80.271,46.595 80.266,40.282 78.425 L 38.207 77.820 39.374 75.533 C 40.016 74.275,41.041 72.570,41.653 71.743 L 42.765 70.239 45.159 72.006 C 47.232 73.536,47.520 73.999,47.302 75.456 M178.963 72.339 C 181.783 74.397,181.164 79.951,178.178 79.388 C 174.437 78.681,171.669 77.812,171.669 77.343 C 171.669 76.241,175.870 70.228,176.412 70.554 C 176.735 70.748,177.883 71.551,178.963 72.339 M227.532 75.288 C 228.703 77.508,228.570 77.773,225.947 78.447 C 220.700 79.794,219.916 79.830,219.910 78.726 C 219.906 78.162,219.754 76.794,219.571 75.688 C 219.261 73.817,219.407 73.551,221.631 71.915 L 224.025 70.155 225.379 71.964 C 226.123 72.959,227.092 74.455,227.532 75.288 M312.660 72.488 C 315.130 74.512,314.386 79.895,311.705 79.389 C 304.431 78.015,304.289 77.821,307.251 73.323 C 309.478 69.942,309.542 69.932,312.660 72.488 M359.768 73.290 C 362.638 77.648,362.382 78.055,356.154 79.058 L 353.542 79.479 353.157 76.397 C 352.859 74.006,352.952 73.213,353.575 72.865 C 354.017 72.617,354.987 71.908,355.731 71.289 C 357.548 69.776,357.408 69.707,359.768 73.290 M92.374 72.230 C 93.529 73.792,95.372 77.124,95.372 77.650 C 95.372 78.065,89.780 79.663,88.331 79.663 C 87.348 79.663,87.034 79.244,86.756 77.560 C 86.182 74.091,86.308 73.704,88.499 72.199 C 91.137 70.388,91.012 70.387,92.374 72.230 M23.023 74.250 C 24.532 75.902,27.041 78.110,28.598 79.159 C 30.817 80.654,31.361 81.308,31.115 82.188 C 30.942 82.805,30.652 85.867,30.471 88.993 L 30.140 94.675 23.906 94.948 C 20.477 95.098,17.293 95.375,16.830 95.563 C 16.249 95.799,15.229 94.858,13.535 92.523 C 12.185 90.662,10.002 88.238,8.683 87.136 L 6.286 85.132 8.169 82.665 C 9.205 81.309,10.211 79.354,10.404 78.322 C 10.706 76.711,11.086 76.348,13.092 75.756 C 15.278 75.110,19.122 72.688,19.542 71.692 C 19.866 70.921,20.213 71.176,23.023 74.250 M117.318 74.195 C 118.126 74.696,119.606 75.317,120.606 75.576 C 122.104 75.965,122.604 76.520,123.442 78.729 C 124.002 80.204,125.118 82.274,125.922 83.328 L 127.384 85.245 125.219 87.201 C 124.028 88.277,121.968 90.648,120.642 92.470 C 118.260 95.740,118.203 95.776,116.197 95.310 C 115.080 95.050,111.878 94.831,109.081 94.824 L 103.997 94.811 104.032 91.585 C 104.052 89.811,103.891 86.592,103.676 84.432 L 103.285 80.505 106.690 77.980 C 108.563 76.592,110.866 74.507,111.808 73.347 C 113.488 71.277,113.542 71.257,114.685 72.261 C 115.325 72.824,116.510 73.695,117.318 74.195 M155.965 74.395 C 157.660 76.126,160.116 78.313,161.423 79.254 C 163.730 80.915,163.787 81.031,163.386 83.259 C 163.159 84.521,162.973 87.606,162.973 90.113 L 162.973 94.672 155.680 94.964 C 148.685 95.245,148.353 95.207,147.560 94.052 C 147.105 93.389,144.979 91.016,142.835 88.778 L 138.938 84.709 140.236 83.328 C 140.950 82.568,141.981 80.626,142.526 79.014 C 143.442 76.310,143.709 76.026,145.953 75.369 C 147.292 74.978,149.271 73.901,150.351 72.976 C 152.838 70.845,152.374 70.728,155.965 74.395 M251.893 74.567 C 253.282 75.197,254.807 75.717,255.283 75.724 C 255.829 75.732,256.395 76.657,256.816 78.229 C 257.182 79.600,258.289 81.641,259.276 82.765 L 261.069 84.807 257.805 87.986 C 256.010 89.734,253.894 92.138,253.103 93.328 C 251.711 95.422,251.583 95.482,249.176 95.152 C 247.807 94.964,244.577 94.811,241.997 94.811 L 237.307 94.811 237.294 89.902 C 237.286 87.202,237.059 84.041,236.789 82.877 C 236.313 80.827,236.370 80.711,238.626 79.139 C 239.906 78.246,242.330 76.110,244.012 74.391 C 247.052 71.284,247.077 71.271,248.220 72.344 C 248.852 72.937,250.505 73.938,251.893 74.567 M289.165 74.274 C 290.830 75.939,293.367 78.109,294.803 79.097 C 296.741 80.430,297.313 81.133,297.022 81.821 C 296.806 82.331,296.504 85.454,296.350 88.759 L 296.071 94.770 291.947 94.748 C 289.679 94.737,286.478 94.895,284.833 95.100 L 281.844 95.474 280.411 93.319 C 279.622 92.134,277.510 89.713,275.716 87.938 L 272.455 84.713 273.755 83.329 C 274.469 82.569,275.494 80.646,276.032 79.057 C 276.956 76.328,277.172 76.114,279.942 75.176 C 281.554 74.630,283.534 73.523,284.341 72.716 C 286.159 70.898,285.613 70.722,289.165 74.274 M382.501 72.896 C 383.640 73.802,385.656 74.875,386.980 75.280 C 388.785 75.832,389.472 76.368,389.724 77.419 C 390.244 79.583,391.902 82.636,393.190 83.801 L 394.354 84.854 391.656 87.280 C 390.172 88.614,388.097 90.964,387.046 92.501 L 385.133 95.297 382.609 94.914 C 381.220 94.703,378.034 94.530,375.528 94.530 L 370.972 94.530 370.679 88.359 C 370.518 84.965,370.238 81.809,370.057 81.346 C 369.834 80.776,370.614 79.905,372.483 78.639 C 373.997 77.613,376.327 75.556,377.660 74.068 C 380.598 70.789,380.027 70.927,382.501 72.896 M40.931 85.033 C 42.616 85.474,44.568 85.835,45.268 85.835 C 46.206 85.835,46.628 86.242,46.865 87.377 C 47.043 88.226,47.563 90.529,48.022 92.496 C 48.480 94.463,48.745 96.182,48.610 96.317 C 48.070 96.858,42.012 97.176,39.124 96.815 L 36.052 96.431 35.681 93.277 C 35.122 88.518,35.815 83.435,36.962 83.880 C 37.461 84.073,39.247 84.592,40.931 85.033 M97.981 91.920 C 97.622 97.072,98.040 96.774,91.162 96.774 C 84.429 96.774,84.460 96.790,85.478 93.905 C 85.905 92.694,86.432 90.416,86.648 88.843 L 87.041 85.983 89.944 85.672 C 91.541 85.501,93.857 85.022,95.091 84.607 L 97.335 83.852 97.802 85.825 C 98.058 86.910,98.139 89.653,97.981 91.920 M175.700 85.168 L 180.012 86.075 180.399 88.889 C 180.612 90.436,181.136 92.694,181.563 93.905 C 182.581 96.789,182.611 96.774,175.877 96.774 C 168.992 96.774,169.326 97.016,168.990 91.780 C 168.635 86.246,169.164 83.364,170.441 83.878 C 170.962 84.088,173.329 84.668,175.700 85.168 M230.896 86.187 C 231.297 88.864,230.866 95.829,230.261 96.433 C 229.825 96.869,218.422 96.870,217.987 96.434 C 217.807 96.255,218.010 95.117,218.437 93.905 C 218.864 92.694,219.396 90.382,219.618 88.768 C 219.960 86.280,220.205 85.829,221.231 85.796 C 221.896 85.775,224.081 85.305,226.087 84.752 C 228.093 84.199,229.907 83.712,230.120 83.669 C 230.332 83.626,230.681 84.759,230.896 86.187 M308.275 84.778 C 309.818 85.108,311.585 85.470,312.202 85.583 C 313.113 85.750,313.489 86.609,314.205 90.159 C 314.690 92.563,315.195 94.900,315.328 95.353 C 315.631 96.391,310.365 97.086,306.139 96.566 C 302.802 96.155,302.526 95.645,302.448 89.762 C 302.381 84.726,302.789 83.411,304.285 83.839 C 304.937 84.026,306.732 84.448,308.275 84.778 M364.414 86.172 C 364.838 88.998,364.451 95.764,363.830 96.385 C 363.357 96.858,351.983 96.910,351.513 96.441 C 351.330 96.258,351.554 95.047,352.012 93.751 C 352.469 92.455,353.008 90.154,353.209 88.638 L 353.574 85.883 356.061 85.510 C 357.428 85.305,359.606 84.806,360.901 84.401 C 362.195 83.997,363.428 83.649,363.640 83.628 C 363.853 83.607,364.201 84.752,364.414 86.172 M193.731 87.413 L 195.448 89.784 194.119 90.755 C 193.388 91.288,191.761 92.298,190.504 92.997 L 188.219 94.270 187.445 92.436 C 185.931 88.850,185.932 85.930,187.448 85.604 C 192.004 84.623,191.632 84.516,193.731 87.413 M211.697 85.541 C 214.076 85.943,214.144 86.503,212.498 92.146 C 211.743 94.734,211.868 94.737,207.660 92.017 L 204.206 89.785 206.030 87.291 C 207.075 85.862,208.214 84.877,208.696 84.986 C 209.158 85.090,210.509 85.340,211.697 85.541 M327.244 87.035 C 329.114 89.736,328.817 90.315,324.298 92.774 L 321.552 94.269 320.950 92.436 C 320.620 91.428,320.129 89.417,319.859 87.967 L 319.370 85.330 321.677 85.119 C 322.945 85.003,324.362 84.874,324.825 84.832 C 325.288 84.790,326.376 85.781,327.244 87.035 M345.933 85.273 C 347.564 85.273,347.645 86.370,346.354 90.970 C 345.325 94.639,345.482 94.631,340.470 91.300 L 337.882 89.580 339.628 87.151 C 341.138 85.052,341.593 84.760,342.987 84.998 C 343.874 85.150,345.200 85.273,345.933 85.273 M60.589 87.384 C 61.360 88.537,62.073 89.662,62.172 89.883 C 62.380 90.345,56.461 94.250,55.553 94.250 C 54.788 94.250,53.880 91.908,53.336 88.528 L 52.912 85.892 54.927 85.677 C 56.036 85.559,57.447 85.423,58.065 85.375 C 58.792 85.318,59.680 86.025,60.589 87.384 M80.668 86.120 C 81.063 86.445,78.957 94.250,78.474 94.250 C 77.736 94.250,74.053 92.266,72.498 91.031 L 71.222 90.018 72.976 87.634 L 74.729 85.250 77.617 85.618 C 79.205 85.821,80.578 86.047,80.668 86.120 M271.602 92.563 C 276.186 97.230,276.162 97.099,272.791 99.058 C 271.325 99.910,269.356 101.188,268.415 101.898 L 266.704 103.188 264.116 101.384 C 262.693 100.391,260.749 99.149,259.797 98.624 C 257.388 97.295,257.544 96.858,261.988 92.494 C 266.821 87.746,266.870 87.746,271.602 92.563 M137.285 91.865 C 138.780 93.331,140.560 95.321,141.242 96.289 L 142.481 98.047 140.715 98.778 C 139.744 99.181,137.724 100.353,136.226 101.383 L 133.503 103.256 130.286 101.076 C 128.517 99.877,126.501 98.717,125.807 98.498 C 124.106 97.963,124.822 96.657,129.137 92.426 C 133.126 88.515,133.819 88.467,137.285 91.865 M203.203 96.634 C 205.201 97.945,207.276 99.272,207.814 99.582 C 209.260 100.416,201.881 108.836,199.704 108.836 C 199.037 108.836,193.163 103.365,191.849 101.520 L 190.722 99.937 194.067 98.154 C 195.907 97.173,197.845 95.894,198.373 95.310 C 199.554 94.004,198.941 93.836,203.203 96.634 M336.194 96.148 C 337.663 97.192,339.619 98.359,340.540 98.741 C 342.909 99.722,342.725 100.164,338.022 104.776 C 333.124 109.580,333.292 109.588,328.050 104.243 C 324.416 100.537,324.163 99.714,326.367 98.785 C 327.216 98.428,329.046 97.278,330.435 96.230 C 333.545 93.883,333.018 93.890,336.194 96.148 M68.683 96.001 C 69.515 96.655,71.440 97.871,72.960 98.703 L 75.725 100.215 74.015 102.540 C 73.075 103.819,71.021 105.887,69.452 107.137 L 66.599 109.409 64.300 107.511 C 60.866 104.676,57.347 100.311,58.243 99.999 C 58.650 99.857,60.544 98.660,62.451 97.338 C 66.550 94.498,66.725 94.461,68.683 96.001 M248.142 101.537 C 248.393 101.764,248.203 103.473,247.721 105.334 C 247.239 107.195,246.844 109.364,246.844 110.154 C 246.844 111.382,246.539 111.637,244.741 111.915 C 243.583 112.094,241.252 112.593,239.560 113.024 C 235.769 113.990,235.944 114.189,235.718 108.649 C 235.464 102.382,236.020 101.101,239.104 100.861 C 242.254 100.615,247.562 101.012,248.142 101.537 M297.373 101.585 C 298.001 102.576,298.046 112.220,297.427 113.194 C 297.064 113.766,296.539 113.752,294.760 113.124 C 293.541 112.695,291.245 112.164,289.656 111.946 L 286.769 111.548 286.371 108.661 C 286.153 107.072,285.627 104.789,285.203 103.587 C 284.779 102.385,284.432 101.324,284.432 101.229 C 284.432 100.169,296.690 100.506,297.373 101.585 M381.664 101.532 C 381.916 101.764,381.739 103.313,381.270 104.974 C 380.802 106.635,380.343 108.752,380.251 109.677 C 380.106 111.141,379.792 111.424,377.840 111.848 C 376.606 112.116,374.336 112.674,372.797 113.088 C 369.225 114.049,369.076 113.855,369.034 108.179 C 368.985 101.546,369.195 101.088,372.399 100.821 C 375.657 100.550,381.048 100.963,381.664 101.532 M31.252 101.753 C 32.753 103.253,31.957 114.812,30.401 114.116 C 29.879 113.883,27.497 113.294,25.106 112.807 C 21.097 111.990,20.756 111.812,20.726 110.519 C 20.708 109.748,20.251 107.424,19.711 105.354 C 18.738 101.622,18.739 101.590,19.884 101.332 C 21.655 100.933,30.770 101.270,31.252 101.753 M115.244 101.592 C 115.425 101.773,115.285 102.748,114.933 103.757 C 114.581 104.767,114.012 107.017,113.668 108.757 C 113.088 111.694,112.923 111.934,111.360 112.098 C 110.435 112.195,108.198 112.651,106.390 113.111 C 102.461 114.111,102.642 114.245,102.263 110.061 C 101.849 105.500,102.466 101.688,103.676 101.338 C 104.970 100.963,114.833 101.180,115.244 101.592 M163.453 101.694 C 164.262 102.286,164.427 103.331,164.427 107.878 C 164.427 114.464,164.366 114.591,161.685 113.645 C 160.530 113.237,158.263 112.722,156.648 112.500 C 154.252 112.170,153.669 111.873,153.478 110.887 C 153.350 110.222,152.845 107.926,152.355 105.786 C 151.648 102.693,151.610 101.802,152.170 101.446 C 153.343 100.702,162.367 100.900,163.453 101.694 M223.346 102.499 L 229.301 102.803 229.601 108.765 C 229.766 112.044,230.059 115.114,230.252 115.588 C 230.500 116.197,229.624 117.140,227.265 118.803 C 225.429 120.098,222.866 122.416,221.569 123.954 L 219.210 126.752 216.954 124.821 C 215.713 123.758,213.654 122.491,212.379 122.004 C 210.374 121.238,209.926 120.743,209.077 118.351 C 208.536 116.829,207.508 114.902,206.792 114.069 L 205.490 112.556 208.744 109.543 C 210.533 107.886,212.706 105.399,213.572 104.016 C 214.822 102.021,215.379 101.573,216.269 101.848 C 216.886 102.040,220.071 102.332,223.346 102.499 M324.126 108.922 L 327.208 112.095 325.728 114.035 C 324.914 115.102,323.854 117.132,323.372 118.545 C 322.585 120.856,322.231 121.205,319.874 121.991 C 318.431 122.472,316.494 123.474,315.568 124.217 L 313.885 125.569 310.230 122.111 C 308.220 120.210,305.894 118.149,305.060 117.532 L 303.543 116.410 303.888 109.537 L 304.232 102.665 309.620 102.598 C 312.583 102.562,315.764 102.364,316.690 102.158 C 318.175 101.828,318.530 102.017,319.709 103.767 C 320.443 104.858,322.431 107.178,324.126 108.922 M356.942 102.502 L 362.973 102.809 363.006 107.365 C 363.023 109.871,363.217 112.931,363.436 114.165 C 363.830 116.389,363.805 116.431,360.627 118.820 C 358.863 120.146,356.307 122.469,354.946 123.982 L 352.472 126.734 350.902 125.095 C 350.038 124.193,348.033 122.918,346.446 122.260 C 343.847 121.182,343.464 120.793,342.588 118.324 C 342.052 116.816,341.023 114.896,340.301 114.057 L 338.988 112.530 341.584 110.195 C 343.011 108.910,345.189 106.441,346.424 104.708 C 348.192 102.225,348.905 101.625,349.790 101.877 C 350.407 102.052,353.626 102.334,356.942 102.502 M53.296 104.629 C 54.252 106.018,56.301 108.422,57.851 109.971 L 60.668 112.788 59.239 114.486 C 58.454 115.419,57.363 117.444,56.816 118.986 C 56.061 121.110,55.481 121.869,54.418 122.123 C 52.418 122.600,49.849 123.932,48.432 125.227 L 47.214 126.339 43.944 123.116 C 42.145 121.343,39.717 119.259,38.548 118.483 C 36.463 117.100,36.431 117.026,36.835 114.498 C 37.062 113.081,37.242 109.965,37.236 107.574 L 37.225 103.226 42.315 103.159 C 45.115 103.123,48.163 102.900,49.088 102.665 C 50.014 102.429,50.949 102.207,51.165 102.170 C 51.382 102.134,52.341 103.240,53.296 104.629 M90.394 103.061 L 96.355 103.364 96.633 109.326 C 96.785 112.605,97.080 115.688,97.288 116.178 C 97.560 116.819,96.989 117.515,95.256 118.656 C 93.931 119.529,91.393 121.726,89.615 123.537 L 86.382 126.830 84.274 125.136 C 83.115 124.205,81.030 123.055,79.641 122.582 C 77.367 121.807,77.017 121.444,76.125 118.933 C 75.580 117.399,74.549 115.463,73.832 114.630 L 72.530 113.117 75.784 110.104 C 77.574 108.447,79.747 105.960,80.613 104.577 C 81.862 102.582,82.420 102.134,83.310 102.409 C 83.927 102.601,87.115 102.894,90.394 103.061 M186.145 103.876 C 186.762 104.850,188.716 107.114,190.487 108.908 L 193.708 112.168 192.187 114.161 C 191.351 115.258,190.275 117.305,189.796 118.710 C 189.317 120.115,188.514 121.395,188.011 121.555 C 185.423 122.374,183.709 123.173,181.900 124.400 L 179.902 125.756 177.785 123.280 C 176.620 121.918,174.247 119.825,172.512 118.629 C 169.964 116.875,169.421 116.235,169.698 115.311 C 169.886 114.681,170.190 111.585,170.373 108.432 L 170.706 102.699 173.852 102.982 C 175.583 103.138,178.261 103.033,179.804 102.750 C 184.499 101.889,184.936 101.967,186.145 103.876 M261.101 107.099 C 263.729 110.002,258.128 113.433,253.224 111.924 C 252.557 111.718,253.125 107.291,254.173 104.535 L 254.698 103.155 257.491 104.676 C 259.027 105.512,260.652 106.602,261.101 107.099 M280.311 109.111 L 280.647 111.563 278.472 111.931 C 277.276 112.134,275.962 112.340,275.553 112.391 C 275.143 112.441,274.021 111.404,273.060 110.087 L 271.312 107.691 272.646 106.721 C 273.380 106.187,275.007 105.201,276.261 104.531 L 278.541 103.311 279.258 104.985 C 279.652 105.906,280.126 107.763,280.311 109.111 M394.633 106.856 C 395.845 107.808,393.127 112.593,391.488 112.391 C 385.965 111.710,385.812 111.476,387.399 106.134 L 388.261 103.229 390.905 104.616 C 392.359 105.379,394.036 106.387,394.633 106.856 M13.442 105.131 C 13.723 105.871,14.183 107.740,14.464 109.285 L 14.975 112.094 11.928 112.475 C 10.253 112.684,8.830 112.772,8.766 112.669 C 8.702 112.566,7.933 111.508,7.055 110.318 C 6.178 109.127,5.683 107.989,5.956 107.789 C 11.346 103.824,12.755 103.324,13.442 105.131 M125.829 105.796 C 127.821 107.043,128.895 108.055,128.656 108.461 C 126.420 112.261,125.610 112.794,122.647 112.416 C 119.008 111.952,119.202 112.344,120.330 107.740 C 121.451 103.167,121.562 103.128,125.829 105.796 M146.329 106.171 C 147.889 112.244,147.956 111.996,144.627 112.403 C 141.860 112.741,141.566 112.660,140.365 111.222 C 137.726 108.062,137.740 107.968,141.219 105.792 C 145.277 103.254,145.586 103.277,146.329 106.171 M247.190 120.757 L 247.694 123.703 245.206 125.498 C 242.287 127.605,242.359 127.630,240.147 123.763 C 237.745 119.565,237.934 119.386,246.345 117.874 C 246.533 117.840,246.913 119.137,247.190 120.757 M292.987 119.059 C 295.594 119.819,295.598 120.252,293.033 124.147 L 290.975 127.273 288.488 125.562 C 286.253 124.024,286.035 123.680,286.339 122.164 C 286.524 121.236,286.676 119.849,286.676 119.082 C 286.676 117.561,287.840 117.557,292.987 119.059 M380.626 120.942 C 381.047 124.310,381.015 124.366,377.465 126.471 L 375.969 127.358 373.959 124.145 C 371.134 119.629,371.411 119.335,379.879 117.874 C 380.075 117.840,380.411 119.221,380.626 120.942 M26.454 119.284 C 30.123 120.313,30.114 120.156,26.783 125.169 L 25.063 127.758 22.587 126.013 C 20.405 124.475,20.150 124.077,20.434 122.653 C 20.612 121.765,20.757 120.438,20.757 119.705 C 20.757 118.074,21.854 117.993,26.454 119.284 M113.575 119.074 C 114.735 122.837,114.411 124.240,112.030 125.770 C 109.260 127.549,108.784 127.305,106.372 122.872 L 104.864 120.103 107.551 119.277 C 110.917 118.243,113.294 118.163,113.575 119.074 M159.245 119.242 L 162.172 120.111 160.667 122.876 C 158.200 127.408,157.706 127.645,154.943 125.613 C 153.049 124.220,152.651 123.627,152.876 122.533 C 153.030 121.788,153.287 120.547,153.447 119.776 C 153.796 118.094,155.005 117.983,159.245 119.242 " fill="white"/></g></svg>