<svg xmlns="http://www.w3.org/2000/svg" width="400" height="131.3"><path fill="#fff" d="m16.3 2.3-3.5 2.3.3 2.6.7 4.7c.4 2.4.2 2.4-4.5 1-3.4-1.1-4-.8-6.7 3.3-2.5 3.7-2.6 4-2.6 8v4.1l2.1 1.4L7 32.6l2.7 1.5L5 39l-5 4.8V47c0 2.8.2 3.6 1.4 4.8.8.9 1.6 2.8 2 4.7.9 3.8 1.9 5.1 4 5.1 2.2 0 5 1.3 6.6 3l1.3 1.4-1.7 1.7c-1 1-2.5 1.8-3.8 2-5.1 1-5.4 1.2-6.2 6-.1 1.3-1 3-2 4C-.3 82-.9 89.1.9 89.1c.8 0 8.6 7.5 8.6 8.4 0 .5-8.2 5.6-9 5.6-.3 0-.5 2.3-.5 5 0 4 .2 5 .7 4.8.4-.2 1.6 1.1 2.9 3.1 2.4 3.8 2.7 4 8.3 2.6 1.8-.4 3.2-.6 3.2-.4l-.8 4c-1.5 6 2 9 10.5 9 5.2 0 5.2 0 8.4-5.8l1.5-2.8L39 127l4.3 4.3h4.2c2.3 0 4.1-.3 4.1-.6 0-1 2.5-2.2 5.6-2.8 3.8-.7 4.4-1.2 4.8-4.4.7-4.5 3.6-8 5.4-6.5 1.5 1.4 3.3 5.4 3.3 7.4s1.7 3.5 4 3.5c2 0 5 1.2 6 2.4.6.8 1.8 1 5.2 1h4.4l4.2-4.3 4.3-4.3 2 3.3c3.2 5.4 3 5.3 8.8 5.3 8.8 0 12.3-3 10.7-9.3-1-4.5-1.3-4.3 3.3-3.3 4.7 1.1 4.9 1 7.4-2.8 2.4-3.9 2.6-3.9 5 0 2.6 3.8 2.8 4 7.4 2.8 4.5-1.1 4.5-1.2 3.5 3.1-1.6 6.4 2 9.5 10.7 9.5h5l2.3-3.7c1.2-2 2.3-3.8 2.3-4.2 0-1.3 1.5-.3 5.4 3.7l4.2 4.2h3.6c2.5 0 3.7-.3 4.2-1 1.2-1.3 5-3 7-3 2.2 0 3.6-1.6 3.6-4 0-3.7 3-7.7 5-6.7 1.3.8 3.4 5 3.4 6.9 0 1.9 1.6 3.8 3 3.9 2.3 0 5.4 1 7 2.5 1.5 1.2 2.3 1.4 5.7 1.4h4l4.1-4.2c4.8-4.8 5-4.9 6.1-2.4.5 1 1.7 2.9 2.6 4.2l1.8 2.4h4.8c4.7 0 5-.1 8.2-2.1 3.6-2.4 3.7-2.7 2.4-8.2-.9-3.7-1-3.6 3.8-2.4 4 1.1 4.6.9 7.1-3.2l2.2-3.3 1.7 2.4c1 1.3 1.7 2.6 1.7 2.8 0 1.7 2.7 2.2 6.4 1.3 4.6-1.2 4.5-1.3 3.4 3.3-1.6 6.2 2.2 9.4 11.2 9.4h5.1l1.8-2.7c1-1.5 2.1-3.3 2.5-4.2 1-2.2 1.4-2 6 2.7l4.1 4.2h3.7c3 0 4-.2 5.3-1.4 1.6-1.4 4.8-2.5 7-2.5 1.4 0 2.5-1 2.5-2.5 0-3.2 2.9-8.8 4.5-8.8 1 0 3.2 4.2 3.9 7 .8 3.6 1.4 4.2 3.7 4.2 2.4 0 5.2 1.2 6.6 2.8.9 1 1.7 1.2 5 1.2h4l4.5-4.3c4-3.9 4.5-4.2 5-3.3l2.8 4.3 2.1 3.3h5c9.1 0 13-3.4 11.5-9.6-1.1-4.2-1-4.3 2.5-3.4 6.8 1.5 10.1-1.8 10.1-10.5v-4.5l-2.1-1.7a27 27 0 0 0-4.2-2.6c-3-1.4-2.7-2.1 2-6.8l4.3-4v-3c0-2.8-.2-3.3-2.2-5.4a7.7 7.7 0 0 1-2.6-5.2c-.5-3.6-1.1-4.2-4.7-4.7a7.6 7.6 0 0 1-5-2.3l-2-2 1.8-1.6c1.6-1.5 2.8-2 7.5-3 1.1-.3 1.7-.9 1.9-2 .9-4.3 1.7-6.1 3.4-7.8 1.9-2 3-9.1 1.4-9.1-.7 0-7-6.2-7.8-7.7-.6-1.2-.5-1.4 1.7-2.5 6.7-3.4 9-9.4 5.4-13.7-.7-.7-1.8-2.3-2.4-3.5-1.3-2.3-2.7-2.5-8.1-1.5l-2.5.4.5-2.4C387.7 3.7 384.2 0 375.6 0h-4l-2 3a40 40 0 0 0-2.7 4.4c-1 2.2-1.3 2-6.3-3L356 0h-4.3c-3.4 0-4.6.2-5.2 1-1 1.2-4 2.4-6 2.4s-3.2 1.3-3.7 4.4c-.4 2.9-2 6-3.5 6.5-1.9.7-5.2-4.5-5.2-8.2 0-1.4-2.2-2.7-4.2-2.7-1 0-3-.8-4.4-1.7-4.7-3-8.4-2.5-11.8 1.4-3.7 4.2-6.5 6.3-7 5.3l-3-4.6-2.4-3.8h-4.7c-8.6 0-12.6 3.4-11 9.5 1.1 4.3 1 4.4-3.4 3.3-4.5-1.2-4.8-1.1-7.4 3-2.6 4-2.3 4-4.9 0-2.4-3.8-2.5-3.9-7.7-2.8-4 .8-4 .8-3-3.2 1.6-6-2.6-9.8-11-9.8h-4.5l-2.6 4.2c-3.3 5.1-2.9 5.1-7.9 0l-4-4.2h-4.5c-3.7 0-4.6.2-5.6 1.1a11.4 11.4 0 0 1-6.5 2.3c-1.5 0-3 2-3 4.1 0 2-2.3 6.2-3.7 6.8-1.6.6-3.9-2.4-4.7-6.3-.8-4-1.3-4.6-3.5-4.6-2 0-6.2-1.8-6.8-2.8-.2-.3-2-.6-4.1-.6H177l-2.1 2.7c-3.4 4.2-6.7 6.6-7.4 5.4l-2.9-4.4-2.3-3.4-4.7-.2C149-.2 145 3.3 146.7 9.5c1.1 4.3 1.1 4.4-3.5 3.3-4.4-1-5-.8-7 2.5-2.5 4.2-2.8 4.2-5.2.7-2.5-3.9-2.8-4-7.3-3-4.5.8-4.6.8-3.5-3.5 1.4-5.7-3-9.5-11-9.5-4.7 0-4.9.2-8.4 6.3L99.2 9l-1.6-1c-.9-.7-3-2.7-4.6-4.5L90 0h-4.4c-3.5 0-4.6.2-5.9 1.2-.9.6-3 1.4-4.9 1.8-3.5.7-3.2.3-4.7 5.9A12 12 0 0 1 68 13l-1.6 1.7-1.7-1.8c-1.1-1.2-2-2.9-2.4-5-.9-4.2-1-4.4-4.8-5.1-1.8-.4-3.9-1.2-4.7-1.8-1-.8-2.3-1-5-1h-4l-4.6 4.6L34.8 9l-1.9-3C29-.5 29.6 0 24.5.1c-4.4 0-4.7 0-8.2 2.2m170.7 6c2.2.7 2.5 1 3 3.2a13 13 0 0 0 2.4 4.4l1.7 2-3.6 3.6c-2 2-4 4.4-4.6 5.4-.7 1.2-1.3 1.6-1.9 1.4-.4-.2-3.6-.5-7-.7l-6.3-.2-.3-6.9-.3-6.8 1.8-1.3c1-.8 3.2-3 5.1-4.8l3.4-3.4 2 1.7c1.3 1 3.3 2.1 4.6 2.5m175 4.8c1.4 1 1.5 1.3 1 3.4a37 37 0 0 0-.6 6.8v4.7l-3.2-.2c-1.8 0-5 0-7.2.3l-3.9.4-1.5-2.4a35 35 0 0 0-4.7-5.4l-3-3 1.4-1.8c.8-1 1.8-3 2.2-4.3.6-2 1-2.4 3.4-3.4a19 19 0 0 0 4.6-2.5l1.9-1.6 4 4c2.2 2.1 4.7 4.4 5.6 5M25 6c4.2 5.6 4 6.1-3.7 7.7-1.8.4-3.1-5.6-1.5-6.5L22 5.7c1.8-1.5 1.8-1.5 3.2.3m24.4 0c1 .7 2.8 1.6 4.2 2 2.1.6 2.5 1 3 2.7.3 1 1.3 3.2 2.3 4.6l1.7 2.7-3 3a42.6 42.6 0 0 0-4.3 5c-1.4 2-1.5 2.1-3.8 1.8-1.3-.2-4.6-.4-7.2-.4h-4.8v-4.6A39 39 0 0 0 37 16c-.5-2.1-.4-2.3 1-3.4A77 77 0 0 0 43.2 8c4.2-4 4-4 6.3-2m63 .6c1.9 1.3 2.2 5 .8 6.6-.5.4-6.8-.5-8-1.2-.5-.3 1-3.2 2.8-5.7 1.5-1.9 1.6-1.9 4.5.3m46.8.3c3.3 5.4 3.3 5.5-3 6.5l-2.5.4-.6-3-.5-2.9 2.3-1.6c2.9-2.2 2.6-2.2 4.3.6m86.3-.2c1.9 1.3 2.3 5.5.8 7.3-.4.4-8-1.8-8-2.4 0-1.4 4-7.1 4.6-6.7l2.6 1.8m48.6 3c1.2 2.2 1 2.4-1.6 3.1-6 1.6-5.8 1.6-6.3-1.6-.2-1.6-.2-3-.1-3.1l2.4-1.9 2.1-1.6 1.4 1.8c.7 1 1.7 2.4 2 3.3m21.2-3.8c.9.7 2.9 1.8 4.4 2.4 2.5.8 2.9 1.2 3.4 3 .3 1.2 1.4 3.2 2.4 4.5l1.8 2.4-3 2.7a31.3 31.3 0 0 0-4.4 5.2c-1.3 2-1.9 2.5-2.7 2.2-.7-.2-3.9-.5-7.1-.6l-6-.4-.3-6c-.1-3.2-.4-6.3-.6-6.7-.3-.6.8-1.7 3.3-3.6 2-1.4 4.3-3.5 5.2-4.6 1.8-2.3 1.5-2.2 3.6-.5m65.1 5c-.4 3.7 0 3.5-5 2.3-4.7-1-4.6-.8-1.1-6l1.7-2.6 2.4 1.7c2.4 1.7 2.4 1.7 2 4.6m-291-2.4c1.8 1.9 4.3 4 5.5 4.9 2 1.3 2.1 1.6 1.8 3.4-.1 1.1-.3 4-.3 6.3v4.2l-6.3.3a51 51 0 0 0-7.2.7c-.7.3-1.4-.3-2.4-2a46 46 0 0 0-4.8-5.4l-3.2-3.2 1.9-3a13 13 0 0 0 1.8-4.4c0-1 .4-1.4 1.5-1.6 2.9-.6 6.3-2 7-2.8 1-1.2 1-1.2 4.7 2.6m138.7 5c2.3 1.3 2.3 1.4 2 3.9a61 61 0 0 0-.5 7V29h-4.2c-2.3 0-5.6 0-7.3.3l-3 .5-1.6-2.5A35 35 0 0 0 209 22l-3.1-2.9 1.4-1.8c.8-1 1.8-3 2.3-4.4.7-2.2 1-2.5 3.6-3.4 1.6-.6 3.6-1.8 4.6-2.6l1.8-1.6 3.2 3.4c1.7 2 4.2 4 5.4 4.9m-197 12.3c-.3 5-.4 5-6.8 5-6.6 0-6.8 0-5.7-4a50 50 0 0 0 1.2-5c.3-2 .4-2 3.3-2.4 1.6-.2 4-.7 5.2-1l2.2-.8.4 2c.3 1 .4 3.9.2 6.2m76.2-7c1.5.5 3.3.8 4 .8 1.5 0 2.5 1 2.5 2.7 0 .8.4 2.9.9 4.8 1 4 1.3 3.8-4.4 3.9-6.6 0-7.5-.4-8-4.3-.5-4.7.2-9.5 1.3-9l3.7 1.2m19.8 1.5 1.7 2.5-2 1.4-3.8 2.2-1.8 1-.9-3.7c-1.3-5-1.2-5.2 1.2-5.4l3-.4c.5 0 1.6 1 2.6 2.4m19-1.9c1.4 0 1.4.8.1 6-.7 2.9-1 3-4.7.8-3.8-2.2-3.9-2.4-2-5 1.4-2.2 1.7-2.4 3.5-2l3.2.2m18.4 3c.9 8.7-.6 10.2-9.1 9.8-4.4-.3-4.4-.2-3.3-4.3.5-1.8.9-4 .9-4.8 0-1 .4-1.6 1.2-2l9.2-2.2c.4 0 .8 1.3 1 3.5m75.8-2.5 4.3 1c1.9.2 2.1.4 2.1 1.8 0 .8.5 3.2 1 5.2l1.1 3.7-3 .4c-8.6 1.1-10.3-.1-10.3-7.4 0-5.2.2-6 1.7-5.5l3 .8m20.1 1.3 1.6 2.4-1.6 1.3c-2.5 2.2-5.7 3.6-6 2.8-2.6-8.4-2.7-8.3 3.4-8.7.7-.1 1.6.6 2.6 2.2m37.3.2c.4 2.9 0 9.6-.6 10.2a43 43 0 0 1-12.4 0c-.2-.2 0-1.5.5-3a41 41 0 0 0 1.2-5.1c.3-2 .6-2.4 1.6-2.4.7 0 2.8-.5 4.8-1l4-1.2c.3 0 .6 1.1.9 2.5m76.2-1.4c.9.3 2.2.5 3 .5 2.4 0 3 .7 3.8 4.9l1.2 5c.3 1.5-3.6 2.2-9.1 1.7l-3.6-.4-.3-3.3c-.2-1.8-.2-4.7 0-6.4.4-3.4.4-3.4 5-2m20.9 4.4c-.7.8-6 4-6.7 4-.4 0-2.3-7.9-2-8.2.1 0 1.4-.4 3-.6l2.8-.5 1.7 2.3c1.4 1.7 1.6 2.4 1.2 3m-382.9-4c2.4.3 2.6 1 1.5 5.5-.8 3.3-1.1 3.4-4.4 1.6-4.1-2.2-4.3-2.6-2.5-5.2 1.6-2.4 2-2.5 5.4-2m267.3.5c1.6.4 1.6 3.2 0 7l-.7 1.7-3.5-2c-4-2.5-4-2.2-1.7-5.2 1.4-1.9 2-2.3 3-2l2.9.5m-76.7 4.4c2.3 1.9 6.2 6.3 6.2 7.1 0 .2-.7.7-1.5 1l-4.5 2.8-3 2-2-1.7a27 27 0 0 0-4.3-2.7c-3-1.5-2-3.7 3.7-8.2 3.3-2.6 2.5-2.5 5.4-.3m135.8 2C343 31 343 31 339.6 33a28 28 0 0 0-4.4 2.8l-1.7 1.2-4.2-2.7c-5.3-3.6-5.3-3.2-.6-7.9 4.9-4.7 4.8-4.7 9.6 0M71 26.3c5 4.8 5.2 5.4 2.3 6.9a34 34 0 0 0-4.3 2.6c-2.1 1.6-1.3 1.9-8-2.3l-3.3-2 1.9-2.3c5.2-6.7 7-7.1 11.4-3m68.8 5.3 2.7 1.4-2 2.3c-1 1.3-3 3.4-4.5 4.6l-2.7 2.3L132 41c-.9-.6-3-2.7-4.8-4.6l-3.2-3.5 2.8-1.5c1.6-.8 3.6-2.2 4.7-3l1.8-1.4 2 1.6c1 .8 3.2 2.2 4.7 3m129.5-2.2c1.5 1 3.5 2.2 4.4 2.6 2.3 1 2.2 1.3-2.5 6-5 4.9-4.7 4.9-10.3-.7-4-4-4.1-4.4-1.9-5.3.9-.4 2.9-1.5 4.4-2.6 3.3-2.3 2.8-2.3 6 0M97 34.2c1 .6 1.5 5.6 1 9.7l-.4 3-3.8-1c-2-.5-4.4-1-5.2-1-1.4 0-1.6-.3-2-3a31.8 31.8 0 0 0-1.9-7.4c0-.8 11.1-1 12.3-.3m82.6-.2 2.5.3-1 3.8c-.5 2-1 4.4-1 5.2 0 1.3-.3 1.6-1.6 1.6-.8 0-3.2.5-5.3 1-4.4 1.2-4.3 1.3-4.3-5.2 0-5.3.3-6.4 2.1-6.6 2.6-.4 6-.5 8.6-.1m51.4.4c.5.6.5 11.1 0 12-.3.5-1.1.5-3.1-.1a51 51 0 0 0-5-1.1c-2-.4-2.5-.7-2.7-2l-1.2-4.9c-1-4.3-1-4 .5-4.3 1.9-.4 11 0 11.5.4m83.8.3c.3.2 0 1.9-.4 3.7-.4 1.9-1 4-1 4.9-.3 1.3-.7 1.6-3 2-1.5.1-3.7.6-4.9 1-3 1.1-3 1.2-3.2-2.7-.6-6.8 0-9 2.6-9.5a30 30 0 0 1 10 .6m49.2 0c.4.3.3 11.7 0 12.1-.3.2-2 0-3.7-.4-1.8-.5-4-1-5-1-1.6-.2-1.7-.4-2.3-3.6-.3-1.9-.9-4.2-1.2-5.2-.6-1.7-.5-1.8.6-2 2.9-.7 10.9-.7 11.6 0m-315.6.8c.2.2 0 2-.5 4l-1.1 5c-.3 1.3-.7 1.5-3.2 1.8a41 41 0 0 0-5 1.2c-2.7.9-2.9.6-2.9-5.6 0-5 .3-6.3 1.7-6.7 1.2-.3 10.6 0 11 .3m71.9 2.5c1 1.7 3.2 4 4.6 5.3l2.5 2.3-1.2 1.3a17 17 0 0 0-2.6 4.6c-1.2 3-1.5 3.3-3.6 4a16 16 0 0 0-4.3 2.1l-2 1.5-3.7-3.5c-2.1-2-4.5-4.1-5.3-4.7-1.6-1.1-1.6-1.2-1-5 .4-2 .6-5.2.5-7l-.2-3.2 3.6.2a38.3 38.3 0 0 0 10.2-1c.2 0 1.3 1.4 2.5 3m133.3 0c1.2 1.5 3.2 4 4.6 5.4l2.5 2.4-1.6 2c-1 1-2 3-2.4 4.3-.5 2-1 2.6-2 2.9a15 15 0 0 0-6.5 3.5l-1 1.1-2.2-2.3a40.7 40.7 0 0 0-5.4-4.9c-3.3-2.4-3.4-2.4-2.9-4.4.3-1.2.5-4.3.5-7V36h4a50.4 50.4 0 0 0 9.8-1c.3 0 1.5 1.2 2.6 2.8M158 36h4.7v4.6c0 2.6.3 5.7.5 7 .5 2.4.4 2.5-1.8 4a48 48 0 0 0-5.4 4.8c-3.5 3.6-3.5 3.6-5.7 1.8a17 17 0 0 0-4.4-2.4c-2.4-.8-2.8-1.2-3.4-3.2a20 20 0 0 0-2.1-4.4L139 46l2.2-2c1.2-1 3.3-3.4 4.7-5.3l2.5-3.5 2.4.4c1.4.2 4.6.3 7.2.3m132.4.3h5.7v4.2c0 2.3.1 5.5.4 7l.4 2.9-2.5 1.6a44 44 0 0 0-5.6 4.8l-3.2 3.3-2-1.7a20 20 0 0 0-4.8-2.6c-2.3-.8-2.8-1.2-3-2.7-.2-1-1.1-3-2-4.3l-1.7-2.4 3.6-3.7c2-2 4-4.4 4.8-5.4 1-1.6 1.4-1.8 2.7-1.5.8.3 4 .4 7.2.5m96 1.5L391 43l2.8 2.7-1.9 2.8a16 16 0 0 0-2.2 4.6c-.3 1.6-.7 2-2.2 2.2a17 17 0 0 0-4.6 2.2l-2.6 1.8L378 57a41.7 41.7 0 0 0-5.2-4.5l-3.1-2.2.4-2.5c.2-1.4.3-4.6.3-7V36l3.1.2c1.7.1 4.5 0 6.2-.3 4.8-.8 4.9-.8 6.7 1.7m-357-.5.4 7.1.3 7-2.3 1.4c-1.2.8-3.7 3-5.4 4.9L19.3 61l-1.8-1.6c-1-.8-3-2-4.6-2.6-2.2-.7-3-1.3-3.2-2.4-.5-2-1.8-4.5-3-6l-1.2-1.1 3.2-3c1.8-1.7 4-4.1 4.8-5.4l1.6-2.3 7.2.3 7.2.3m164.2 3.3 1.6 1.3-1.8 2.4c-1.1 1.6-2 2.3-2.6 2.1-.4-.2-1.7-.3-2.7-.3-2.3 0-2.6-1.8-1-6.3l.8-2.6 2 1c1.2.6 2.9 1.7 3.7 2.4m19.7 2.6c.5 2.6.5 2.6-3.3 3.1-2.2.3-2.4.2-4-2.1l-1.8-2.5 2-1.4c5.7-3.8 6-3.6 7.1 2.9M328 40.7c1.2 1-1.5 5.7-3.2 5.5-5.5-.7-5.6-1-4-6.3l.8-2.9 2.6 1.4c1.5.8 3.2 1.8 3.8 2.3m18.5-.4c1.3 4.7 1.2 5-1.2 5.4l-3 .6c-.8.2-4-3.6-4-4.8 0-.4 6.1-4.5 6.9-4.5.2 0 .7 1.5 1.3 3.3m-287.8-.7c1.9 1 3.5 2 3.6 2.2 0 0-.7 1.3-1.7 2.6l-2 2.6-2.8-.5c-3.5-.7-3.4-.3-2.2-4.9 1.1-4.6.8-4.5 5-2m20.8.4c.4 1 .8 2.8 1 4l.3 2-3 .5-3 .5-1.8-2.5c-1-1.3-1.6-2.5-1.5-2.6 1.1-1 6.4-4.1 6.8-4 .3 0 .8 1 1.2 2m123.3 10.4c2.1 3.2 2.2 3.2 4.4 2.9l4.5-.7 2.3-.4-.4 2.2-.7 4.5-.3 2.4 3.4 2.1c4.2 2.6 4.2 2.5 0 5-3.6 2.2-3.7 2.4-2.6 7.6.8 4 .8 4.1-3.5 3-4.4-1.1-4.9-1-7.4 3.2-1.2 1.9-2.3 3.3-2.5 3-.2-.2-1.3-1.6-2.4-3.3-2.3-3.1-3.5-3.5-9.2-2.3l-2.2.4.3-1.9c.2-1 .6-3.1.7-4.7l.4-2.8-3.1-1.8c-4.2-2.5-4.3-2.7-.7-5 4.1-2.6 4.3-3.5 2.2-11-.2-.7 0-.8 2.2-.3l4.7.8 2.3.3 2.4-3.7c1.3-2.1 2.5-3.6 2.7-3.3l2.5 3.8m133.1-.8c2.4 4 3.3 4.3 7.8 3l3.7-.8c.2 0 0 1.7-.4 3.7-1.1 4.9-.8 5.8 2.9 8 4 2.4 4.1 2-2.2 6-1.7 1-1.8 1.7-.4 8 .4 2 .4 2.4-.4 2.1-7-2-8.6-1.8-10.2 1.2-.6 1.2-1.5 2.7-2.1 3.4l-1 1.3-2.2-3.4c-2.6-4-3-4.2-7.6-3-4.3 1-4.4 1-3.3-3.3 1.2-4.5 1-5.1-3-7.5-3.7-2.3-3.7-2.3.4-5 3.4-2.1 3.5-2.4 2.4-7.7-.8-4-.8-4 3.3-3 4.4 1.2 5.2 1 7.7-3 2.6-4.1 2.1-4.1 4.6 0M70 51c1.7 2.7 2.3 3 6.6 1.8 4.5-1 4.3-1.2 3.3 3.2-1 4.3-.6 5.7 2.1 7 1 .6 2.4 1.4 3.1 2l1.2 1-1.5 1c-.8.7-2.3 1.6-3.3 2.1-2.3 1.2-2.7 2.8-1.5 6.8 1.1 4 1 4-3.4 3.2-4.6-1-5.3-.7-7.3 2.8-2.2 3.8-2.5 3.8-5 0-2.3-3.8-2.5-4-7.4-2.6-4 1-4 1-3-3.6.9-4.9.7-5.1-3-7.3-4.2-2.3-4.3-2 2-5.9 1.8-1 1.8-1.8.6-6.5-1-4.3-1-4.3 3.5-3.1 3.7.9 6.4.4 6.4-1.3 0-.3.8-1.5 1.7-2.8l1.7-2.4 1 1.3c.6.7 1.6 2.2 2.2 3.3m66.6 4.8c.8 5.1.7 5 6.9 6.2.7 0 2.1 1 3.3 2l2 1.8-2 1.8a8.6 8.6 0 0 1-4.1 2.1c-5 .8-4.8.5-6.1 6.9-.3 1.6-3 4.6-4 4.6-1.2 0-3.7-4.2-4-7-.3-2.8-1.6-4.2-4-4.2-1.9 0-6.3-2.2-7-3.5-.9-1.4 2.2-4.1 5.1-4.6 5-.9 5.3-1.2 6-6a10 10 0 0 1 2.2-4.2l1.7-2 1.8 2c1.1 1.2 2 2.8 2.2 4.1M269.9 54c.6 1.3 1 3 1 4 0 2.3.9 3 4.6 3.6 8 1.5 7.6 7-.6 8.4-3.3.5-4.5 1.6-4.5 4 0 3.7-3.1 8-5 6.9a12 12 0 0 1-3.4-6.6c0-2.5-1-3.6-3.2-4-9.8-1.7-10.3-7-.9-8.8 3-.5 4-1.3 4.1-2.9 0-2.4 1.2-5.4 2.8-7.1 2-2.2 3.2-1.5 5.1 2.5m-89.3 3c0 1.9-4.4 4.5-5.4 3.1-4.2-5.5-4.1-6.5.2-7.4l3.8-.9c.6-.1 1.3 2.7 1.4 5.1m44.2-4.2c4 .9 4.1 2.3.3 7.2l-1.1 1.3-2.2-1.6a96 96 0 0 0-2.3-1.7c-.7-.4.7-6.2 1.5-6 .5 0 2.2.4 3.8.8m89 1.8c.3 2.7.3 3-1.2 4.2-3.1 2.6-3.2 2.6-5.4-.9-2.6-4.1-2.6-4.3 1.2-5.1a103.8 103.8 0 0 0 4.7-1.1c.2 0 .5 1.2.7 2.9m45.1-1.8c1.3.4 2.6.9 2.7 1.1a28 28 0 0 1-4 7.1l-2.6-1.5-2.5-1.8.6-3c.6-3.4.2-3.3 5.8-1.9m-312.1.4c1.2 4.5.5 6-3.8 7.9-.6.2-1.7-1.3-3.4-4.5L38.2 54l3-.9c3.9-1.1 5.2-1.1 5.6 0m46.5.3c2.6.8 2.6.9 0 5L91 61.7 88.7 60c-2.3-1.6-2.4-1.9-2-3.8l.3-3c0-1.1 1.6-1 6.3.3M170 63l1.5 2-1.4 1.8c-.8 1-2.2 3-3 4.6l-1.5 2.8-3.5-3.2c-2-1.7-4-3.9-4.6-4.8l-1.2-1.6L161 60l4.6-4.5 1.5 2.8 3 4.7m-63.4-2.2c4.1 4.2 4.1 4.3-1 9.3l-4.3 4.2-1.3-2.3-3-4.7-1.6-2.4 1.7-2.3a37 37 0 0 0 2.7-4.3c1.4-2.6 2-2.4 6.8 2.5m133.5.4c3.6 4.1 3 6.1-3.4 11l-2.5 2-1.5-2.8c-.8-1.5-2-3.5-2.7-4.3-1.6-2-1.6-1.7 1.3-6.1 1.4-2 2.5-4 2.5-4.3 0-1 3.6 1.5 6.3 4.5m59.7-3.9c.1.6 1.3 2.6 2.6 4.5l2.2 3.4-1.3 1.8c-.8 1-2 2.9-2.6 4.2-1.8 3.4-2 3.4-6.5-1.2-5.2-5.1-5.2-4.6-.1-9.7 4.4-4.4 5.1-4.7 5.7-3M374 62c2.8 3.1 2.8 3 .2 6.2-3.4 4.1-6.4 6.3-7.1 5l-3-4.5-2.3-3.7 1.6-2c.8-1.1 2.1-3.1 2.8-4.4l1.2-2.5 2.1 1.7c1.2 1 3.2 2.8 4.5 4.2M33 57.7a30 30 0 0 0 2.5 4.2c3 4.5 3 4 1 6.5-1 1.1-2.2 3-2.7 4.1-.6 1.2-1.2 2.1-1.4 2.1-.7 0-4-2.8-5.8-4.8-3.4-4.2-3.4-3.7-.9-6.8 3.1-3.7 7.3-6.8 7.3-5.3m14.2 17.8c-.7 4.8-.7 4.8-7 3l-2-.7 1-2.3a33 33 0 0 1 2.4-3.8l1-1.5 2.5 1.8c2 1.5 2.3 2 2.1 3.5M179 72.3c2.8 2.1 2.2 7.7-.8 7-3.8-.6-6.5-1.5-6.5-2 0-1 4.2-7 4.7-6.7l2.6 1.7m48.5 3c1.2 2.2 1 2.5-1.6 3.1-5.2 1.4-6 1.4-6 .3l-.3-3c-.3-1.9-.2-2.1 2-3.8l2.4-1.7 1.4 1.8 2.1 3.3m85.2-2.8c2.4 2 1.7 7.4-1 6.9-7.3-1.4-7.4-1.6-4.4-6 2.2-3.5 2.2-3.5 5.4-1m47 .9c3 4.3 2.7 4.8-3.5 5.8l-2.7.4-.3-3.1c-.3-2.4-.2-3.2.4-3.5l2.1-1.6c1.8-1.5 1.7-1.6 4 2m-267.3-1c1.1 1.5 3 4.8 3 5.4 0 .4-5.6 2-7 2-1 0-1.4-.5-1.6-2.1-.6-3.5-.5-3.9 1.7-5.4 2.6-1.8 2.5-1.8 3.9 0m-69.4 2a38 38 0 0 0 5.6 5c2.2 1.5 2.8 2.1 2.5 3-.2.6-.4 3.7-.6 6.8l-.4 5.7-6.2.2c-3.4.2-6.6.5-7 .7-.7.2-1.7-.7-3.4-3A36 36 0 0 0 8.7 87l-2.4-2 1.9-2.4c1-1.4 2-3.3 2.2-4.4.3-1.6.7-2 2.7-2.5 2.2-.7 6-3.1 6.4-4.1.4-.8.7-.5 3.5 2.5m94.3 0c.8.5 2.3 1.1 3.3 1.4 1.5.4 2 1 2.8 3.1a22 22 0 0 0 2.5 4.6l1.5 2-2.2 1.9c-1.2 1-3.2 3.4-4.6 5.3-2.3 3.2-2.4 3.3-4.4 2.8-1.1-.3-4.3-.5-7.1-.5H104v-3.2c0-1.8-.1-5-.3-7.2l-.4-3.9 3.4-2.5a30 30 0 0 0 5.1-4.7c1.7-2 1.7-2 2.9-1l2.6 1.9m38.7.2c1.7 1.7 4.1 4 5.4 4.9 2.3 1.6 2.4 1.7 2 4a55 55 0 0 0-.4 6.8v4.6l-7.3.3c-7 .2-7.3.2-8.1-1a76 76 0 0 0-4.8-5.2l-3.9-4 1.3-1.5c.8-.7 1.8-2.7 2.3-4.3 1-2.7 1.2-3 3.5-3.6 1.3-.4 3.3-1.5 4.4-2.4 2.4-2.2 2-2.3 5.6 1.4m95.9.2c1.4.6 3 1.1 3.4 1.1.5 0 1 1 1.5 2.5.4 1.4 1.5 3.4 2.5 4.6l1.8 2-3.3 3.2c-1.8 1.7-4 4.1-4.7 5.3-1.4 2.1-1.5 2.2-4 1.9-1.3-.2-4.5-.4-7.1-.4h-4.7V90c0-2.7-.2-5.9-.5-7-.5-2-.4-2.2 1.8-3.8 1.3-.9 3.7-3 5.4-4.7 3-3.1 3-3.1 4.2-2 .7.5 2.3 1.5 3.7 2.2m37.3-.3a50 50 0 0 0 5.6 4.8c2 1.3 2.5 2 2.2 2.7-.2.5-.5 3.7-.6 7l-.3 6h-4.2c-2.2 0-5.4 0-7 .3l-3 .4-1.5-2.2c-.8-1.2-2.9-3.6-4.7-5.4l-3.2-3.2 1.3-1.4c.7-.7 1.7-2.7 2.2-4.2 1-2.8 1.2-3 4-4 1.6-.5 3.5-1.6 4.3-2.4 1.9-1.8 1.3-2 4.9 1.6m93.3-1.4c1.1.9 3.2 2 4.5 2.4 1.8.5 2.5 1 2.7 2.1.5 2.2 2.2 5.2 3.5 6.4l1.2 1-2.7 2.5a35.3 35.3 0 0 0-4.7 5.2l-1.9 2.8-2.5-.4a61 61 0 0 0-7-.4H371l-.3-6.1-.6-7c-.3-.6.5-1.5 2.4-2.8 1.5-1 3.8-3 5.2-4.5 2.9-3.3 2.3-3.2 4.8-1.2M40.9 85c1.7.5 3.7.8 4.4.8 1 0 1.3.4 1.6 1.6l1.1 5.1c.5 2 .7 3.7.6 3.8-.5.6-6.6.9-9.5.5l-3-.4-.4-3.1c-.6-4.8.1-9.9 1.3-9.4l4 1.1m57 7c-.4 5 0 4.8-6.8 4.8s-6.7 0-5.7-2.9c.4-1.2 1-3.5 1.1-5l.4-3 3-.2 5-1 2.3-.8.5 2c.3 1 .3 3.8.2 6m77.7-6.7 4.3.9.4 2.8a31 31 0 0 0 1.2 5c1 2.9 1 2.9-5.7 2.9-7 0-6.6.2-7-5-.3-5.6.3-8.4 1.5-8 .6.3 3 .9 5.3 1.4m55.2 1c.4 2.7 0 9.6-.6 10.2-.5.5-11.9.5-12.3 0-.2-.1 0-1.3.4-2.5.5-1.2 1-3.5 1.2-5.1.4-2.5.6-3 1.6-3 .7 0 2.9-.5 4.9-1l4-1.1c.2 0 .6 1 .8 2.5m77.4-1.4 3.9.8c1 .2 1.3 1 2 4.6l1.1 5.2c.3 1-5 1.7-9.2 1.2-3.3-.4-3.6-1-3.7-6.8 0-5 .4-6.4 1.9-6l4 1m56.1 1.4c.4 2.8 0 9.6-.6 10.2-.4.5-11.8.5-12.3 0-.2-.1 0-1.4.5-2.6.5-1.3 1-3.6 1.2-5.2l.4-2.7 2.5-.4a39 39 0 0 0 7.5-1.9c.3 0 .6 1.2.8 2.6m-170.7 1.2 1.7 2.4-1.3 1a44 44 0 0 1-3.6 2.2l-2.3 1.3-.8-1.9c-1.5-3.6-1.5-6.5 0-6.8 4.6-1 4.2-1 6.3 1.8m18-1.9c2.4.4 2.4 1 .8 6.6-.8 2.6-.6 2.6-4.8 0l-3.5-2.3 1.8-2.5c1-1.4 2.2-2.4 2.7-2.3l3 .5M327.2 87c2 2.7 1.6 3.3-2.9 5.8l-2.7 1.5-.7-1.9c-.3-1-.8-3-1-4.4l-.5-2.7 2.3-.2 3.1-.3c.5 0 1.6 1 2.4 2.2m18.7-1.7c1.7 0 1.7 1 .5 5.7-1 3.6-1 3.6-6 .3l-2.5-1.7 1.7-2.4c1.5-2.1 2-2.4 3.4-2.2.9.2 2.2.3 3 .3m-285.4 2 1.6 2.6a21 21 0 0 1-6.6 4.3c-.8 0-1.7-2.3-2.3-5.7L53 86l2-.2 3.2-.3c.7 0 1.6.6 2.5 2m20-1.3a23 23 0 0 1-2.1 8.2c-.8 0-4.4-2-6-3.3l-1.3-1 1.8-2.4 1.7-2.3 3 .3 3 .5m190.9 6.5c4.6 4.6 4.6 4.5 1.2 6.5-1.5.8-3.4 2-4.4 2.8l-1.7 1.3-2.6-1.8-4.3-2.8c-2.4-1.3-2.3-1.7 2.2-6.1 4.8-4.8 4.9-4.8 9.6 0M137.3 92c1.5 1.4 3.3 3.4 4 4.4l1.2 1.7-1.8.8c-1 .4-3 1.6-4.5 2.6l-2.7 1.9-3.2-2.2a27.3 27.3 0 0 0-4.5-2.6c-1.7-.5-1-1.8 3.3-6 4-4 4.7-4 8.2-.6m65.9 4.7 4.6 3c1.5.8-6 9.2-8.1 9.2-.7 0-6.5-5.4-7.9-7.3l-1-1.6 3.3-1.7a22 22 0 0 0 4.3-2.9c1.2-1.3.5-1.5 4.8 1.3m133-.5c1.5 1 3.4 2.3 4.3 2.6 2.4 1 2.2 1.5-2.5 6-4.9 4.9-4.7 4.9-10-.5-3.6-3.7-3.8-4.5-1.6-5.4.8-.4 2.6-1.5 4-2.6 3.1-2.3 2.6-2.3 5.8 0M68.7 96a39 39 0 0 0 4.3 2.7l2.7 1.5-1.7 2.3a30 30 0 0 1-4.5 4.6l-2.9 2.3-2.3-1.9c-3.4-2.8-7-7.2-6-7.5a33 33 0 0 0 4.2-2.7c4-2.8 4.2-2.8 6.2-1.3m179.4 5.5c.3.3.1 2-.4 3.8a26 26 0 0 0-.9 4.9c0 1.2-.3 1.4-2 1.7a69 69 0 0 0-5.2 1.1c-3.8 1-3.7 1.2-3.9-4.4-.2-6.2.3-7.5 3.4-7.7 3.2-.3 8.5.1 9 .6m49.3 0c.6 1 .6 10.7 0 11.7-.3.6-.9.6-2.6 0a38 38 0 0 0-5.1-1.3l-3-.4-.3-2.8a31.4 31.4 0 0 0-2-7.5c0-1 12.3-.7 13 .4m84.3 0c.2.2 0 1.7-.4 3.4a36 36 0 0 0-1 4.7c-.2 1.4-.5 1.7-2.5 2.1l-5 1.3c-3.6 1-3.7.8-3.8-5 0-6.6.2-7 3.4-7.3 3.3-.3 8.6.2 9.3.7m-350.4.3c1.5 1.5.7 13-.9 12.3l-5.3-1.3c-4-.8-4.3-1-4.4-2.3 0-.8-.4-3-1-5.1-1-3.8-1-3.8.2-4 1.8-.5 10.9-.1 11.4.4m84-.2c.1.2 0 1.1-.4 2.2-.3 1-.9 3.2-1.2 5-.6 2.9-.8 3.1-2.3 3.3-1 0-3.2.6-5 1-4 1-3.8 1.1-4.1-3-.5-4.6.2-8.4 1.4-8.8a61 61 0 0 1 11.5.3m48.3 0c.8.7 1 1.7 1 6.3 0 6.6-.1 6.7-2.8 5.7a31 31 0 0 0-5-1.1c-2.4-.3-3-.6-3.2-1.6l-1.1-5.1c-.8-3.1-.8-4-.2-4.4 1.1-.7 10.2-.5 11.3.3m59.8.8 6 .3.3 6c.2 3.2.5 6.3.7 6.8.2.6-.7 1.5-3 3.2a36.4 36.4 0 0 0-5.7 5.2l-2.4 2.8-2.2-2a19 19 0 0 0-4.6-2.8c-2-.8-2.5-1.3-3.3-3.6a17 17 0 0 0-2.3-4.3l-1.3-1.5 3.2-3c1.8-1.7 4-4.2 4.9-5.6 1.2-2 1.8-2.4 2.7-2.2.6.2 3.8.5 7 .7m100.8 6.4 3.1 3.2-1.5 2a19 19 0 0 0-2.3 4.4c-.8 2.4-1.2 2.7-3.5 3.5-1.5.5-3.4 1.5-4.3 2.2l-1.7 1.4-3.7-3.5-5.1-4.6-1.6-1 .4-7 .3-6.8 5.4-.1c3 0 6.2-.2 7-.4 1.6-.4 2-.2 3.1 1.6.7 1 2.7 3.4 4.4 5.1m32.8-6.4 6 .3.1 4.6c0 2.5.2 5.5.4 6.8.4 2.2.4 2.2-2.8 4.6a48 48 0 0 0-5.7 5.2l-2.4 2.7-1.6-1.6c-.9-1-2.9-2.2-4.5-2.8-2.6-1.1-3-1.5-3.8-4a15 15 0 0 0-2.3-4.2l-1.3-1.6 2.6-2.3a43 43 0 0 0 4.8-5.5c1.8-2.5 2.5-3 3.4-2.8.6.2 3.8.4 7.1.6m-303.6 2.1c1 1.4 3 3.8 4.6 5.4l2.8 2.8-1.5 1.7c-.7 1-1.8 3-2.4 4.5-.7 2.1-1.3 2.9-2.4 3.1-2 .5-4.6 1.8-6 3.1l-1.2 1.1-3.3-3.2a48.1 48.1 0 0 0-5.4-4.6c-2-1.4-2-1.5-1.7-4 .3-1.4.4-4.5.4-7v-4.3h5.1a44 44 0 0 0 8.9-1c.2 0 1.1 1 2.1 2.4m37-1.5 6 .3.3 6c.2 3.2.5 6.3.7 6.8.3.6-.3 1.3-2 2.5-1.4.8-4 3-5.7 4.8l-3.2 3.3-2.1-1.7c-1.2-.9-3.3-2-4.7-2.5-2.2-.8-2.6-1.2-3.5-3.7-.5-1.5-1.6-3.4-2.3-4.3l-1.3-1.5 3.3-3c1.8-1.7 4-4.1 4.8-5.5 1.3-2 1.8-2.5 2.7-2.2.6.2 3.8.5 7 .7m95.8.8c.7 1 2.6 3.2 4.4 5l3.2 3.3-1.5 2c-.8 1-2 3.1-2.4 4.5-.5 1.4-1.3 2.7-1.8 2.9-2.6.8-4.3 1.6-6.1 2.8l-2 1.4-2.1-2.5a33 33 0 0 0-5.3-4.7c-2.5-1.7-3-2.4-2.8-3.3.2-.6.5-3.7.7-6.9l.3-5.7 3.2.3c1.7.1 4.4 0 5.9-.3 4.7-.8 5.1-.7 6.3 1.2m75 3.2c2.6 2.9-3 6.3-7.9 4.8-.6-.2 0-4.6 1-7.4l.5-1.3 2.8 1.5c1.5.8 3.2 1.9 3.6 2.4m19.2 2 .3 2.5-2.1.3-3 .5c-.4 0-1.5-1-2.4-2.3l-1.8-2.4 1.3-1 3.7-2.2 2.2-1.2.8 1.7c.4 1 .8 2.8 1 4.1m114.3-2.2c1.2 1-1.5 5.7-3.1 5.5-5.5-.7-5.7-1-4.1-6.3l.9-2.9 2.6 1.4a28 28 0 0 1 3.7 2.3M13.4 105c.3.8.8 2.6 1 4.2l.6 2.8-3 .4-3.2.2-1.7-2.4c-1-1.2-1.4-2.3-1.1-2.5 5.3-4 6.8-4.5 7.4-2.7m112.4.7c2 1.2 3.1 2.3 2.9 2.7-2.3 3.8-3 4.3-6 4-3.7-.5-3.5-.2-2.4-4.8 1.2-4.5 1.3-4.6 5.5-1.9m20.5.4c1.6 6 1.7 5.8-1.7 6.2-2.7.3-3 .3-4.2-1.2-2.7-3.1-2.7-3.2.8-5.4 4-2.5 4.4-2.5 5.1.4m100.9 14.6.5 2.9-2.5 1.8c-3 2.1-2.8 2.1-5-1.7-2.5-4.2-2.3-4.4 6.1-6 .2 0 .6 1.3.9 3M293 119c2.6.7 2.6 1.2 0 5l-2 3.2-2.5-1.7c-2.2-1.6-2.5-2-2.2-3.4l.4-3.1c0-1.5 1.1-1.5 6.3 0m87.6 1.8c.4 3.4.4 3.5-3.1 5.6l-1.5.9-2-3.3c-2.9-4.5-2.6-4.8 5.9-6.2.2 0 .5 1.3.7 3m-354.1-1.6c3.6 1 3.6.9.3 5.9l-1.7 2.6-2.5-1.8c-2.2-1.5-2.5-2-2.2-3.3l.4-3c0-1.6 1-1.7 5.7-.4m87-.2c1.2 3.7 1 5.1-1.5 6.7-2.7 1.7-3.2 1.5-5.6-3l-1.5-2.7 2.7-.8c3.3-1 5.7-1.1 6-.2m45.6.1 3 1-1.5 2.7c-2.5 4.5-3 4.7-5.8 2.7-1.9-1.4-2.2-2-2-3l.5-2.8c.4-1.7 1.6-1.8 5.8-.6"/></svg>