<svg xmlns="http://www.w3.org/2000/svg" width="24" height="24" viewBox="0 0 24 24" fill="none">
<path d="M7.28897 4.08621C7.21338 3.90254 7.21374 3.69639 7.28995 3.51298C7.36617 3.32957 7.51202 3.18388 7.69552 3.10787C7.87901 3.03187 8.08516 3.03175 8.26875 3.10754C8.45233 3.18334 8.59835 3.32886 8.67478 3.51218L9.39225 5.2444C9.43021 5.33544 9.44983 5.43307 9.45 5.53171C9.45017 5.63034 9.43088 5.72804 9.39324 5.81921C9.3556 5.91039 9.30035 5.99324 9.23064 6.06302C9.16093 6.13281 9.07815 6.18816 8.98702 6.22591C8.89589 6.26366 8.79821 6.28306 8.69958 6.283C8.60094 6.28294 8.50328 6.26343 8.4122 6.22558C8.32111 6.18773 8.23839 6.13229 8.16876 6.06242C8.09914 5.99255 8.04398 5.90964 8.00644 5.81843L7.28897 4.08621ZM2.01225 10.1746L3.74447 10.8922C3.83551 10.9301 3.93314 10.9498 4.03178 10.9499C4.13042 10.9501 4.22812 10.9308 4.31929 10.8932C4.41046 10.8555 4.49331 10.8003 4.5631 10.7306C4.63288 10.6609 4.68823 10.5781 4.72598 10.4869C4.76373 10.3958 4.78313 10.2981 4.78307 10.1995C4.78302 10.1009 4.76351 10.0032 4.72566 9.91213C4.6878 9.82104 4.63236 9.73832 4.56249 9.66869C4.49263 9.59906 4.40971 9.5439 4.3185 9.50636L2.58628 8.78899C2.49507 8.75003 2.39704 8.72954 2.29785 8.72872C2.19867 8.7279 2.10031 8.74676 2.00847 8.78421C1.91663 8.82166 1.83312 8.87695 1.7628 8.94689C1.69247 9.01683 1.63671 9.10003 1.59875 9.19166C1.56079 9.2833 1.54138 9.38155 1.54165 9.48073C1.54192 9.57992 1.56186 9.67806 1.60032 9.76949C1.63878 9.86092 1.69499 9.94381 1.76569 10.0134C1.8364 10.0829 1.9202 10.1377 2.01225 10.1746ZM19.9688 10.9495C20.0672 10.9494 20.1646 10.93 20.2555 10.8922L21.9877 10.1746C22.0798 10.1377 22.1636 10.0828 22.2343 10.0133C22.305 9.94371 22.3612 9.86082 22.3997 9.7694C22.4381 9.67797 22.4581 9.57982 22.4583 9.48064C22.4586 9.38145 22.4392 9.2832 22.4012 9.19157C22.3633 9.09993 22.3075 9.01674 22.2372 8.9468C22.1669 8.87686 22.0834 8.82157 21.9915 8.78412C21.8997 8.74667 21.8013 8.72781 21.7021 8.72863C21.603 8.72945 21.5049 8.74993 21.4137 8.7889L19.6815 9.50636C19.5212 9.57278 19.3888 9.69274 19.307 9.84581C19.2252 9.99888 19.199 10.1756 19.2329 10.3458C19.2668 10.516 19.3586 10.6692 19.4928 10.7793C19.627 10.8894 19.7952 10.9495 19.9688 10.9495ZM15.0137 6.22436C15.1047 6.26214 15.2022 6.2816 15.3007 6.28163C15.3992 6.28167 15.4968 6.26228 15.5878 6.22458C15.6788 6.18687 15.7615 6.13159 15.8311 6.0619C15.9007 5.99221 15.9559 5.90947 15.9936 5.81843L16.711 4.08621C16.7866 3.90254 16.7863 3.69639 16.71 3.51298C16.6338 3.32957 16.488 3.18388 16.3045 3.10787C16.121 3.03187 15.9148 3.03175 15.7313 3.10754C15.5477 3.18334 15.4016 3.32886 15.3252 3.51218L14.6077 5.2444C14.5701 5.33539 14.5507 5.43293 14.5506 5.53143C14.5506 5.62992 14.57 5.72746 14.6077 5.81846C14.6454 5.90946 14.7007 5.99214 14.7703 6.06179C14.84 6.13143 14.9227 6.18668 15.0137 6.22436ZM23.25 14.9999C23.25 15.1988 23.171 15.3896 23.0303 15.5303C22.8897 15.6709 22.6989 15.7499 22.5 15.7499H17.4253L17.4232 15.7501L17.4204 15.7499H1.5C1.30109 15.7499 1.11032 15.6709 0.96967 15.5303C0.829018 15.3896 0.75 15.1988 0.75 14.9999C0.75 14.801 0.829018 14.6102 0.96967 14.4696C1.11032 14.3289 1.30109 14.2499 1.5 14.2499H5.66972C5.56321 13.3554 5.64747 12.4486 5.91696 11.589C6.18644 10.7295 6.63502 9.9368 7.23314 9.26323C7.83126 8.58967 8.56533 8.05051 9.38698 7.68128C10.2086 7.31206 11.0992 7.12116 12 7.12116C12.9008 7.12116 13.7914 7.31206 14.613 7.68128C15.4347 8.05051 16.1687 8.58967 16.7669 9.26323C17.365 9.9368 17.8136 10.7295 18.083 11.589C18.3525 12.4486 18.4368 13.3554 18.3303 14.2499H22.5C22.6989 14.2499 22.8897 14.3289 23.0303 14.4696C23.171 14.6102 23.25 14.801 23.25 14.9999ZM7.18294 14.2499H16.8171C16.9252 13.5547 16.8816 12.8444 16.6892 12.1676C16.4969 11.4909 16.1603 10.8638 15.7026 10.3294C15.245 9.79505 14.6771 9.36608 14.0379 9.07197C13.3988 8.77786 12.7036 8.62557 12 8.62557C11.2964 8.62557 10.6012 8.77786 9.96208 9.07197C9.32295 9.36608 8.75504 9.79505 8.29738 10.3294C7.83972 10.8638 7.50315 11.4909 7.31077 12.1676C7.1184 12.8444 7.07479 13.5547 7.18294 14.2499ZM19.5 17.9999H4.5C4.30109 17.9999 4.11032 18.0789 3.96967 18.2196C3.82902 18.3602 3.75 18.551 3.75 18.7499C3.75 18.9488 3.82902 19.1396 3.96967 19.2803C4.11032 19.4209 4.30109 19.4999 4.5 19.4999H19.5C19.6989 19.4999 19.8897 19.4209 20.0303 19.2803C20.171 19.1396 20.25 18.9488 20.25 18.7499C20.25 18.551 20.171 18.3602 20.0303 18.2196C19.8897 18.0789 19.6989 17.9999 19.5 17.9999Z" fill="url(#paint0_linear_777_54338)"/>
<defs>
<linearGradient id="paint0_linear_777_54338" x1="1.81579" y1="19.4999" x2="31.5695" y2="19.169" gradientUnits="userSpaceOnUse">
<stop stop-color="#C47F45"/>
<stop offset="1" stop-color="#FFB673"/>
</linearGradient>
</defs>
</svg>