<svg xmlns="http://www.w3.org/2000/svg" width="24" height="24" viewBox="0 0 24 24" fill="none">
<path d="M14.625 6.75034C13.9839 6.74998 13.3458 6.83636 12.7279 7.00712C12.4838 6.60735 12.1871 6.2422 11.8457 5.92149L12.7347 4.65174C12.8488 4.48881 12.8935 4.28722 12.859 4.09133C12.8245 3.89543 12.7135 3.72128 12.5506 3.60718C12.3876 3.49308 12.1861 3.44838 11.9902 3.48291C11.7943 3.51744 11.6201 3.62837 11.506 3.7913L10.6169 5.06115C9.83339 4.66573 8.96309 4.47353 8.08593 4.50221L7.8163 2.97277C7.7996 2.87542 7.76383 2.78232 7.71104 2.69883C7.65826 2.61534 7.5895 2.5431 7.50872 2.48626C7.42794 2.42941 7.33673 2.38908 7.24032 2.36759C7.14391 2.34609 7.04421 2.34385 6.94693 2.36099C6.84965 2.37814 6.75672 2.41433 6.67347 2.46749C6.59022 2.52065 6.51829 2.58973 6.46181 2.67076C6.40533 2.7518 6.36541 2.84319 6.34435 2.9397C6.32329 3.0362 6.3215 3.13592 6.33908 3.23312L6.60852 4.76162C5.77401 5.03347 5.02201 5.51238 4.42274 6.15362L3.15121 5.26337C2.98822 5.15058 2.78721 5.10689 2.59212 5.14186C2.39702 5.17682 2.2237 5.2876 2.11002 5.44997C1.99635 5.61234 1.95157 5.8131 1.98548 6.00839C2.01938 6.20367 2.12921 6.3776 2.29096 6.49215L3.56221 7.38231C3.16435 8.16461 2.97124 9.03499 3.00093 9.91215L1.47233 10.1817C1.28748 10.2141 1.12149 10.3146 1.00712 10.4634C0.89275 10.6121 0.838316 10.7984 0.854563 10.9854C0.87081 11.1723 0.956558 11.3464 1.09488 11.4732C1.2332 11.6001 1.41404 11.6704 1.60171 11.6704C1.64564 11.6704 1.6895 11.6665 1.73277 11.6589L3.26183 11.3894C3.39628 11.7988 3.58067 12.1901 3.81083 12.5544C3.09211 13.2202 2.59082 14.0872 2.3724 15.0423C2.15398 15.9973 2.22857 16.996 2.58644 17.908C2.94431 18.8201 3.56883 19.603 4.37848 20.1546C5.18812 20.7063 6.14528 21.001 7.12499 21.0003H14.625C16.5147 21.0003 18.3269 20.2497 19.6631 18.9135C20.9993 17.5773 21.75 15.765 21.75 13.8753C21.75 11.9857 20.9993 10.1734 19.6631 8.8372C18.3269 7.501 16.5147 6.75034 14.625 6.75034V6.75034ZM4.55905 10.4154C4.55811 10.4101 4.55793 10.4048 4.55699 10.3995C4.55605 10.3936 4.55418 10.3881 4.55305 10.3823C4.38437 9.41372 4.60551 8.41772 5.16824 7.61152C5.17152 7.60702 5.17536 7.60309 5.17855 7.5984C5.1823 7.59334 5.18511 7.5879 5.18858 7.58265C5.75336 6.78022 6.61199 6.23309 7.57789 6.06015C7.58483 6.05921 7.59177 6.05865 7.59871 6.05743C7.60527 6.05631 7.61146 6.05434 7.61793 6.05312C8.57154 5.88903 9.55167 6.10031 10.353 6.64271C10.3682 6.65509 10.3833 6.66756 10.3996 6.6789C10.4115 6.68724 10.4242 6.69315 10.4363 6.70065C10.7723 6.94145 11.0658 7.2364 11.305 7.57346C9.77851 8.38117 8.595 9.71292 7.97221 11.3237C7.69246 11.2748 7.40899 11.2502 7.12499 11.2503C6.40942 11.2498 5.70262 11.4077 5.05536 11.7128C4.81064 11.315 4.64233 10.875 4.55905 10.4154ZM14.625 19.5003H7.12499C6.22988 19.5003 5.37144 19.1448 4.7385 18.5118C4.10557 17.8789 3.74999 17.0204 3.74999 16.1253C3.74999 15.2302 4.10557 14.3718 4.7385 13.7389C5.37144 13.1059 6.22988 12.7503 7.12499 12.7503C7.27848 12.7503 7.43179 12.7607 7.58389 12.7813C7.52795 13.1433 7.4999 13.509 7.49999 13.8753C7.49999 14.0742 7.57901 14.265 7.71966 14.4057C7.86031 14.5463 8.05108 14.6253 8.24999 14.6253C8.4489 14.6253 8.63967 14.5463 8.78032 14.4057C8.92097 14.265 8.99999 14.0742 8.99999 13.8753C8.99999 12.7628 9.32989 11.6753 9.94797 10.7503C10.5661 9.82523 11.4446 9.10426 12.4724 8.67851C13.5002 8.25277 14.6312 8.14138 15.7224 8.35842C16.8135 8.57546 17.8158 9.11119 18.6025 9.89786C19.3891 10.6845 19.9249 11.6868 20.1419 12.778C20.3589 13.8691 20.2476 15.0001 19.8218 16.0279C19.3961 17.0558 18.6751 17.9343 17.7501 18.5524C16.825 19.1704 15.7375 19.5003 14.625 19.5003V19.5003Z" fill="url(#paint0_linear_692_31651)"/>
<defs>
<linearGradient id="paint0_linear_692_31651" x1="1.84166" y1="21.0003" x2="29.4784" y2="20.7485" gradientUnits="userSpaceOnUse">
<stop stop-color="#C47F45"/>
<stop offset="1" stop-color="#FFB673"/>
</linearGradient>
</defs>
</svg>