<svg xmlns="http://www.w3.org/2000/svg" width="24" height="24" viewBox="0 0 24 24" fill="none">
<path d="M14.625 6.75026C14.2369 6.75036 13.8495 6.78209 13.4666 6.84514C13.33 5.43721 12.7544 4.10782 11.8211 3.04483C10.8879 1.98185 9.64416 1.23903 8.26575 0.921354C8.14192 0.892929 8.01289 0.89643 7.89078 0.931528C7.76867 0.966626 7.65747 1.03217 7.56763 1.12201C7.47779 1.21186 7.41225 1.32305 7.37715 1.44516C7.34205 1.56727 7.33855 1.6963 7.36697 1.82014C7.45554 2.20726 7.50017 2.60313 7.5 3.00026C7.49844 4.39217 6.94482 5.72662 5.96059 6.71084C4.97636 7.69507 3.64191 8.2487 2.25001 8.25026C1.85282 8.25042 1.45689 8.20583 1.06969 8.11732C0.945854 8.08891 0.816828 8.09242 0.69472 8.12754C0.572612 8.16265 0.461425 8.2282 0.371592 8.31805C0.281759 8.40791 0.216226 8.51911 0.18114 8.64122C0.146055 8.76334 0.142567 8.89236 0.171005 9.0162C0.372319 9.88509 0.743401 10.7056 1.26292 11.4306C1.78243 12.1556 2.44013 12.7707 3.19819 13.2407C2.66395 13.9665 2.34155 14.8264 2.26683 15.7246C2.19211 16.6228 2.36802 17.5241 2.77498 18.3282C3.18194 19.1324 3.804 19.8079 4.57197 20.2797C5.33994 20.7514 6.22372 21.0008 7.125 21.0003H14.625C16.5147 21.0003 18.3269 20.2496 19.6631 18.9134C20.9993 17.5772 21.75 15.7649 21.75 13.8753C21.75 11.9856 20.9993 10.1733 19.6631 8.83712C18.3269 7.50093 16.5147 6.75026 14.625 6.75026ZM2.00326 9.74576C2.08544 9.74882 2.16769 9.75032 2.25001 9.75026C4.0396 9.74825 5.75532 9.03645 7.02076 7.77101C8.28619 6.50558 8.998 4.78985 9 3.00026C9 2.9167 8.99844 2.83317 8.99532 2.74967C9.85926 3.1546 10.5956 3.78871 11.1243 4.583C11.6529 5.37728 11.9537 6.30134 11.9937 7.25463C11.0798 7.62024 10.2511 8.17024 9.5592 8.87032C8.86729 9.57041 8.32707 10.4056 7.97222 11.3237C7.69248 11.2747 7.409 11.2502 7.125 11.2503C6.11596 11.2495 5.13182 11.5636 4.30988 12.1489C3.30157 11.6181 2.49231 10.775 2.00326 9.74576ZM14.625 19.5003H7.125C6.2299 19.5003 5.37146 19.1447 4.73852 18.5117C4.10558 17.8788 3.75001 17.0204 3.75001 16.1253C3.75001 15.2302 4.10558 14.3717 4.73852 13.7388C5.37146 13.1058 6.2299 12.7503 7.125 12.7503C7.2785 12.7502 7.43181 12.7606 7.58391 12.7812C7.52797 13.1432 7.49991 13.509 7.5 13.8753C7.5 14.0742 7.57902 14.2649 7.71968 14.4056C7.86033 14.5462 8.05109 14.6253 8.25 14.6253C8.44892 14.6253 8.63968 14.5462 8.78033 14.4056C8.92099 14.2649 9 14.0742 9 13.8753C9 12.7627 9.32991 11.6752 9.94799 10.7502C10.5661 9.82515 11.4446 9.10418 12.4724 8.67844C13.5002 8.25269 14.6312 8.1413 15.7224 8.35834C16.8135 8.57538 17.8158 9.11111 18.6025 9.89778C19.3892 10.6845 19.9249 11.6867 20.1419 12.7779C20.359 13.869 20.2476 15 19.8218 16.0279C19.3961 17.0557 18.6751 17.9342 17.7501 18.5523C16.8251 19.1704 15.7375 19.5003 14.625 19.5003Z" fill="url(#paint0_linear_777_54359)"/>
<defs>
<linearGradient id="paint0_linear_777_54359" x1="1.17504" y1="21.0003" x2="29.7374" y2="20.7507" gradientUnits="userSpaceOnUse">
<stop stop-color="#C47F45"/>
<stop offset="1" stop-color="#FFB673"/>
</linearGradient>
</defs>
</svg>