<svg xmlns="http://www.w3.org/2000/svg" width="24" height="24" viewBox="0 0 24 24" fill="none">
<path d="M2.62493 8.25C2.62493 8.44891 2.70395 8.63968 2.8446 8.78033C2.98525 8.92098 3.17602 9 3.37493 9H4.87493V10.5C4.87493 10.6989 4.95395 10.8897 5.0946 11.0303C5.23525 11.171 5.42602 11.25 5.62493 11.25C5.82384 11.25 6.01461 11.171 6.15526 11.0303C6.29592 10.8897 6.37493 10.6989 6.37493 10.5V9H7.87493C8.07384 9 8.26461 8.92098 8.40526 8.78033C8.54592 8.63968 8.62493 8.44891 8.62493 8.25C8.62493 8.05109 8.54592 7.86032 8.40526 7.71967C8.26461 7.57902 8.07384 7.5 7.87493 7.5H6.37493V6C6.37493 5.80109 6.29592 5.61032 6.15526 5.46967C6.01461 5.32902 5.82384 5.25 5.62493 5.25C5.42602 5.25 5.23525 5.32902 5.0946 5.46967C4.95395 5.61032 4.87493 5.80109 4.87493 6V7.5H3.37493C3.17602 7.5 2.98525 7.57902 2.8446 7.71967C2.70395 7.86032 2.62493 8.05109 2.62493 8.25ZM11.6249 4.5H10.8749V5.25C10.8749 5.44891 10.7959 5.63968 10.6553 5.78033C10.5146 5.92098 10.3238 6 10.1249 6C9.92602 6 9.73525 5.92098 9.5946 5.78033C9.45395 5.63968 9.37493 5.44891 9.37493 5.25V4.5H8.62493C8.42602 4.5 8.23525 4.42098 8.0946 4.28033C7.95395 4.13968 7.87493 3.94891 7.87493 3.75C7.87493 3.55109 7.95395 3.36032 8.0946 3.21967C8.23525 3.07902 8.42602 3 8.62493 3H9.37493V2.25C9.37493 2.05109 9.45395 1.86032 9.5946 1.71967C9.73525 1.57902 9.92602 1.5 10.1249 1.5C10.3238 1.5 10.5146 1.57902 10.6553 1.71967C10.7959 1.86032 10.8749 2.05109 10.8749 2.25V3H11.6249C11.8238 3 12.0146 3.07902 12.1553 3.21967C12.2959 3.36032 12.3749 3.55109 12.3749 3.75C12.3749 3.94891 12.2959 4.13968 12.1553 4.28033C12.0146 4.42098 11.8238 4.5 11.6249 4.5ZM4.8514 14.0734C4.80305 14.2185 4.80018 14.3748 4.84315 14.5216C5.28367 16.0984 6.1294 17.5325 7.2962 18.681C8.463 19.8295 9.91019 20.6525 11.4938 21.068C13.0774 21.4836 14.7422 21.4772 16.3226 21.0496C17.903 20.622 19.3439 19.788 20.5019 18.6307C21.6599 17.4733 22.4947 16.0329 22.9232 14.4527C23.3517 12.8725 23.3589 11.2077 22.9443 9.62388C22.5296 8.04005 21.7074 6.5924 20.5595 5.42497C19.4116 4.25753 17.9781 3.41101 16.4015 2.96962C16.2718 2.93073 16.1339 2.92767 16.0026 2.96078C15.8713 2.99389 15.7513 3.06193 15.6556 3.15769C15.5598 3.25344 15.4917 3.37334 15.4586 3.50466C15.4254 3.63598 15.4284 3.77382 15.4673 3.90356C15.8374 5.24556 15.8453 6.66167 15.4901 8.00771C15.135 9.35375 14.4295 10.5816 13.4455 11.5664C12.4615 12.5511 11.2341 13.2575 9.88838 13.6137C8.54261 13.9698 7.1265 13.963 5.78421 13.5939C5.59692 13.5362 5.39446 13.554 5.22014 13.6436C5.04582 13.7332 4.91347 13.8875 4.8514 14.0734ZM6.72434 15.3043C8.13914 15.4792 9.5752 15.3292 10.9233 14.8657C12.2714 14.4021 13.496 13.6372 14.5041 12.6292C15.5121 11.6212 16.277 10.3966 16.7406 9.04846C17.2042 7.70036 17.3542 6.26431 17.1793 4.8495C18.3306 5.38185 19.3362 6.18435 20.1107 7.18875C20.8853 8.19315 21.4058 9.36974 21.628 10.6185C21.8502 11.8672 21.7676 13.1511 21.3872 14.3611C21.0067 15.571 20.3397 16.6712 19.4429 17.5681C18.546 18.4649 17.4458 19.1319 16.2358 19.5123C15.0259 19.8927 13.742 19.9753 12.4932 19.7531C11.2445 19.5308 10.0679 19.0103 9.06354 18.2357C8.05915 17.4612 7.25667 16.4555 6.72434 15.3043Z" fill="url(#paint0_linear_777_54366)"/>
<path fill-rule="evenodd" clip-rule="evenodd" d="M12.7979 7.61035C12.7979 7.19614 12.4621 6.86035 12.0479 6.86035C11.6337 6.86035 11.2979 7.19614 11.2979 7.61035V7.86035H11.0479C10.6337 7.86035 10.2979 8.19614 10.2979 8.61035C10.2979 9.02456 10.6337 9.36035 11.0479 9.36035H11.2979V9.61035C11.2979 10.0246 11.6337 10.3604 12.0479 10.3604C12.4621 10.3604 12.7979 10.0246 12.7979 9.61035V9.36035H13.0479C13.4621 9.36035 13.7979 9.02457 13.7979 8.61035C13.7979 8.19614 13.4621 7.86035 13.0479 7.86035H12.7979V7.61035Z" fill="url(#paint1_linear_777_54366)"/>
<defs>
<linearGradient id="paint0_linear_777_54366" x1="22.273" y1="21.3751" x2="-5.00275" y2="21.1449" gradientUnits="userSpaceOnUse">
<stop stop-color="#C47F45"/>
<stop offset="1" stop-color="#FFB673"/>
</linearGradient>
<linearGradient id="paint1_linear_777_54366" x1="10.4637" y1="10.3604" x2="15.0923" y2="10.3227" gradientUnits="userSpaceOnUse">
<stop stop-color="#C47F45"/>
<stop offset="1" stop-color="#FFB673"/>
</linearGradient>
</defs>
</svg>