<svg xmlns="http://www.w3.org/2000/svg" width="24" height="24" viewBox="0 0 24 24" fill="none">
<path d="M12 5.625C10.7391 5.625 9.5066 5.99889 8.45824 6.69938C7.40988 7.39988 6.59278 8.39551 6.11027 9.56039C5.62776 10.7253 5.50151 12.0071 5.74749 13.2437C5.99347 14.4803 6.60063 15.6162 7.49219 16.5078C8.38375 17.3994 9.51967 18.0065 10.7563 18.2525C11.9929 18.4985 13.2747 18.3722 14.4396 17.8897C15.6045 17.4072 16.6001 16.5901 17.3006 15.5418C18.0011 14.4934 18.375 13.2609 18.375 12C18.3731 10.3098 17.7008 8.68944 16.5057 7.4943C15.3106 6.29917 13.6902 5.62691 12 5.625ZM12 16.875C11.0358 16.875 10.0933 16.5891 9.2916 16.0534C8.48991 15.5177 7.86506 14.7564 7.49609 13.8656C7.12711 12.9748 7.03057 11.9946 7.21867 11.0489C7.40677 10.1033 7.87107 9.23464 8.55285 8.55285C9.23464 7.87107 10.1033 7.40677 11.0489 7.21867C11.9946 7.03057 12.9748 7.12711 13.8656 7.49609C14.7564 7.86506 15.5177 8.48991 16.0534 9.2916C16.5891 10.0933 16.875 11.0358 16.875 12C16.8735 13.2925 16.3595 14.5316 15.4455 15.4455C14.5316 16.3595 13.2925 16.8735 12 16.875ZM11.25 3.375V1.5C11.25 1.30109 11.329 1.11032 11.4697 0.96967C11.6103 0.829018 11.8011 0.75 12 0.75C12.1989 0.75 12.3897 0.829018 12.5303 0.96967C12.671 1.11032 12.75 1.30109 12.75 1.5V3.375C12.75 3.57391 12.671 3.76468 12.5303 3.90533C12.3897 4.04598 12.1989 4.125 12 4.125C11.8011 4.125 11.6103 4.04598 11.4697 3.90533C11.329 3.76468 11.25 3.57391 11.25 3.375ZM4.04503 5.10563C3.9747 5.03613 3.9188 4.95342 3.88055 4.86224C3.8423 4.77107 3.82245 4.67323 3.82216 4.57435C3.82186 4.47548 3.84112 4.37752 3.87882 4.28612C3.91653 4.19471 3.97193 4.11167 4.04185 4.04175C4.11177 3.97184 4.19482 3.91645 4.28623 3.87875C4.37763 3.84106 4.47559 3.82181 4.57447 3.82211C4.67334 3.82242 4.77118 3.84227 4.86235 3.88053C4.95352 3.91878 5.03623 3.97469 5.10572 4.04503L6.43153 5.37094C6.50245 5.44029 6.55892 5.52303 6.59765 5.61435C6.63637 5.70568 6.6566 5.80378 6.65716 5.90297C6.65771 6.00217 6.63858 6.10049 6.60088 6.19224C6.56317 6.28399 6.50764 6.36736 6.4375 6.4375C6.36736 6.50764 6.28399 6.56317 6.19224 6.60088C6.10049 6.63858 6.00217 6.65771 5.90297 6.65716C5.80378 6.6566 5.70568 6.63637 5.61435 6.59765C5.52303 6.55892 5.44029 6.50245 5.37094 6.43153L4.04503 5.10563ZM3.375 12.75H1.5C1.30109 12.75 1.11032 12.671 0.96967 12.5303C0.829018 12.3897 0.75 12.1989 0.75 12C0.75 11.8011 0.829018 11.6103 0.96967 11.4697C1.11032 11.329 1.30109 11.25 1.5 11.25H3.375C3.57391 11.25 3.76468 11.329 3.90533 11.4697C4.04598 11.6103 4.125 11.8011 4.125 12C4.125 12.1989 4.04598 12.3897 3.90533 12.5303C3.76468 12.671 3.57391 12.75 3.375 12.75ZM6.43153 17.5684C6.50118 17.638 6.55643 17.7207 6.59412 17.8117C6.63181 17.9027 6.65121 18.0002 6.65121 18.0987C6.65121 18.1972 6.63181 18.2947 6.59412 18.3857C6.55643 18.4767 6.50118 18.5594 6.43153 18.6291L5.10572 19.955C5.03607 20.0246 4.95339 20.0799 4.8624 20.1176C4.7714 20.1552 4.67387 20.1746 4.57538 20.1746C4.47688 20.1746 4.37935 20.1552 4.28836 20.1176C4.19736 20.0799 4.11468 20.0246 4.04503 19.955C3.97539 19.8853 3.92014 19.8026 3.88245 19.7116C3.84476 19.6206 3.82536 19.5231 3.82536 19.4246C3.82536 19.3261 3.84476 19.2286 3.88245 19.1376C3.92014 19.0466 3.97539 18.9639 4.04503 18.8943L5.37094 17.5685C5.51159 17.4278 5.70234 17.3488 5.90123 17.3488C6.10013 17.3488 6.29088 17.4278 6.43153 17.5685V17.5684ZM12.75 20.625V22.5C12.75 22.6989 12.671 22.8897 12.5303 23.0303C12.3897 23.171 12.1989 23.25 12 23.25C11.8011 23.25 11.6103 23.171 11.4697 23.0303C11.329 22.8897 11.25 22.6989 11.25 22.5V20.625C11.25 20.4261 11.329 20.2353 11.4697 20.0947C11.6103 19.954 11.8011 19.875 12 19.875C12.1989 19.875 12.3897 19.954 12.5303 20.0947C12.671 20.2353 12.75 20.4261 12.75 20.625ZM19.955 18.8944C20.0253 18.9639 20.0812 19.0466 20.1195 19.1378C20.1577 19.2289 20.1775 19.3268 20.1778 19.4256C20.1781 19.5245 20.1589 19.6225 20.1212 19.7139C20.0835 19.8053 20.0281 19.8883 19.9582 19.9582C19.8882 20.0282 19.8052 20.0836 19.7138 20.1212C19.6224 20.1589 19.5244 20.1782 19.4255 20.1779C19.3267 20.1776 19.2288 20.1577 19.1376 20.1195C19.0465 20.0812 18.9638 20.0253 18.8943 19.955L17.5685 18.6291C17.4975 18.5597 17.4411 18.477 17.4024 18.3856C17.3636 18.2943 17.3434 18.1962 17.3428 18.097C17.3423 17.9978 17.3614 17.8995 17.3991 17.8078C17.4368 17.716 17.4924 17.6326 17.5625 17.5625C17.6326 17.4924 17.716 17.4368 17.8078 17.3991C17.8995 17.3614 17.9978 17.3423 18.097 17.3428C18.1962 17.3434 18.2943 17.3636 18.3856 17.4024C18.477 17.4411 18.5597 17.4975 18.6291 17.5685L19.955 18.8944ZM23.25 12C23.25 12.1989 23.171 12.3897 23.0303 12.5303C22.8897 12.671 22.6989 12.75 22.5 12.75H20.625C20.4261 12.75 20.2353 12.671 20.0947 12.5303C19.954 12.3897 19.875 12.1989 19.875 12C19.875 11.8011 19.954 11.6103 20.0947 11.4697C20.2353 11.329 20.4261 11.25 20.625 11.25H22.5C22.6989 11.25 22.8897 11.329 23.0303 11.4697C23.171 11.6103 23.25 11.8011 23.25 12ZM17.5685 6.43162C17.4988 6.36198 17.4436 6.2793 17.4059 6.1883C17.3682 6.09731 17.3488 5.99978 17.3488 5.90128C17.3488 5.80279 17.3682 5.70526 17.4059 5.61426C17.4436 5.52326 17.4988 5.44058 17.5685 5.37094L18.8943 4.04503C18.9639 3.97539 19.0466 3.92014 19.1376 3.88245C19.2286 3.84476 19.3261 3.82536 19.4246 3.82536C19.5231 3.82536 19.6206 3.84476 19.7116 3.88245C19.8026 3.92014 19.8853 3.97539 19.955 4.04503C20.0246 4.11468 20.0799 4.19736 20.1176 4.28836C20.1552 4.37935 20.1746 4.47688 20.1746 4.57538C20.1746 4.67387 20.1552 4.7714 20.1176 4.8624C20.0799 4.95339 20.0246 5.03607 19.955 5.10572L18.6291 6.43153C18.4884 6.57216 18.2977 6.65117 18.0988 6.65117C17.8999 6.65117 17.7091 6.57216 17.5685 6.43153V6.43162Z" fill="url(#paint0_linear_777_54345)"/>
<defs>
<linearGradient id="paint0_linear_777_54345" x1="1.81579" y1="23.25" x2="31.5712" y2="23.008" gradientUnits="userSpaceOnUse">
<stop stop-color="#C47F45"/>
<stop offset="1" stop-color="#FFB673"/>
</linearGradient>
</defs>
</svg>